<?xml version="1.0" encoding="UTF-8"?>
<svg version="1.1" xmlns="http://www.w3.org/2000/svg" width="512" height="512">
<path d="M0 0 C1.51774716 -0.00418201 3.03549118 -0.00966424 4.55322951 -0.01631981 C8.68881069 -0.03067967 12.82419098 -0.02655957 16.95978272 -0.019153 C21.43367667 -0.01439999 25.90752849 -0.02694999 30.38140869 -0.03717041 C39.13275477 -0.05432247 47.88402894 -0.05520585 56.63538746 -0.04995751 C63.75260586 -0.04590765 70.86980309 -0.04736904 77.98702049 -0.05270576 C79.00197249 -0.05345419 80.01692449 -0.05420261 81.06263262 -0.05497371 C83.12485698 -0.05650527 85.18708134 -0.05804362 87.24930569 -0.05958868 C106.56688979 -0.07330087 125.88443333 -0.06788517 145.2020165 -0.05640347 C162.85050508 -0.04647378 180.49888879 -0.05940948 198.1473612 -0.08333766 C216.29586007 -0.10775721 234.44431015 -0.11732943 252.59282511 -0.11068493 C262.77098846 -0.10719889 272.94907119 -0.10938404 283.12722206 -0.12693596 C291.79212366 -0.14169374 300.45688787 -0.14224684 309.12178687 -0.12486505 C313.53700137 -0.11638181 317.95197084 -0.11413952 322.36717224 -0.1295166 C326.41945967 -0.14345424 330.47129424 -0.13848556 334.52355608 -0.11927737 C335.97902673 -0.11554461 337.43453447 -0.11835942 338.88997183 -0.12888902 C352.03093974 -0.21709822 365.19117489 1.80551189 376.88615417 8.13768005 C377.54510681 8.48274597 378.20405945 8.82781189 378.88298035 9.18333435 C399.04360049 20.0069214 414.63686273 37.39301443 421.57365417 59.38768005 C424.31356033 68.92969348 425.00618639 77.92925564 424.96133423 87.81402588 C424.96551624 89.33177304 424.97099847 90.84951706 424.97765404 92.36725539 C424.9920139 96.50283657 424.9878938 100.63821686 424.98048723 104.7738086 C424.97573421 109.24770255 424.98828422 113.72155437 424.99850464 118.19543457 C425.01565669 126.94678065 425.01654008 135.69805482 425.01129173 144.44941334 C425.00724188 151.56663174 425.00870327 158.68382897 425.01403999 165.80104637 C425.01478842 166.81599837 425.01553684 167.83095037 425.01630794 168.8766585 C425.0178395 170.93888286 425.01937785 173.00110721 425.02092291 175.06333157 C425.0346351 194.38091567 425.0292194 213.69845921 425.01773769 233.01604237 C425.00780801 250.66453096 425.02074371 268.31291466 425.04467189 285.96138708 C425.06909144 304.10988595 425.07866366 322.25833603 425.07201916 340.40685099 C425.06853311 350.58501434 425.07071827 360.76309707 425.08827019 370.94124794 C425.10302797 379.60614953 425.10358107 388.27091375 425.08619928 396.93581275 C425.07771604 401.35102725 425.07547375 405.76599671 425.09085083 410.18119812 C425.10478847 414.23348555 425.09981979 418.28532012 425.08061159 422.33758195 C425.07687884 423.79305261 425.07969365 425.24856035 425.09022325 426.70399771 C425.17843245 439.84496562 423.15582234 453.00520077 416.82365417 464.70018005 C416.47858826 465.35913269 416.13352234 466.01808533 415.77799988 466.69700623 C404.95441283 486.85762637 387.5683198 502.45088861 365.57365417 509.38768005 C356.03164075 512.12758621 347.03207859 512.82021227 337.14730835 512.77536011 C335.62956119 512.77954211 334.11181717 512.78502435 332.59407884 512.79167992 C328.45849766 512.80603978 324.32311737 512.80191968 320.18752563 512.79451311 C315.71363168 512.78976009 311.23977986 512.8023101 306.76589966 512.81253052 C298.01455358 512.82968257 289.26327941 512.83056596 280.51192089 512.82531761 C273.39470249 512.82126776 266.27750526 512.82272915 259.16028786 512.82806587 C257.63785986 512.82918851 257.63785986 512.82918851 256.08467573 512.83033382 C254.02245137 512.83186538 251.96022701 512.83340373 249.89800266 512.83494879 C230.58041856 512.84866098 211.26287502 512.84324528 191.94529185 512.83176357 C174.29680327 512.82183389 156.64841956 512.83476959 138.99994715 512.85869776 C120.85144828 512.88311731 102.7029982 512.89268953 84.55448323 512.88604504 C74.37631989 512.88255899 64.19823716 512.88474415 54.02008629 512.90229607 C45.35518469 512.91705385 36.69042048 512.91760695 28.02552148 512.90022516 C23.61030698 512.89174192 19.19533751 512.88949963 14.78013611 512.90487671 C10.72784867 512.91881435 6.67601411 512.91384567 2.62375227 512.89463747 C1.16828162 512.89090472 -0.28722612 512.89371953 -1.74266348 512.90424912 C-14.88363139 512.99245833 -28.04386654 510.96984822 -39.73884583 504.63768005 C-40.39779846 504.29261414 -41.0567511 503.94754822 -41.735672 503.59202576 C-61.89629214 492.76843871 -77.48955438 475.38234568 -84.42634583 453.38768005 C-87.16625198 443.84566663 -87.85887805 434.84610447 -87.81402588 424.96133423 C-87.81820789 423.44358707 -87.82369012 421.92584304 -87.83034569 420.40810472 C-87.84470555 416.27252354 -87.84058545 412.13714324 -87.83317888 408.00155151 C-87.82842587 403.52765755 -87.84097587 399.05380574 -87.85119629 394.57992554 C-87.86834834 385.82857946 -87.86923173 377.07730529 -87.86398339 368.32594677 C-87.85993353 361.20872837 -87.86139492 354.09153114 -87.86673164 346.97431374 C-87.86748007 345.95936174 -87.86822849 344.94440973 -87.86899959 343.89870161 C-87.87053115 341.83647725 -87.8720695 339.77425289 -87.87361456 337.71202854 C-87.88732675 318.39444444 -87.88191105 299.0769009 -87.87042934 279.75931773 C-87.86049966 262.11082915 -87.87343536 244.46244544 -87.89736354 226.81397303 C-87.92178309 208.66547416 -87.93135531 190.51702408 -87.92471081 172.36850911 C-87.92122476 162.19034577 -87.92340992 152.01226304 -87.94096184 141.83411217 C-87.95571962 133.16921057 -87.95627272 124.50444636 -87.93889093 115.83954736 C-87.93040769 111.42433285 -87.9281654 107.00936339 -87.94354248 102.59416199 C-87.95748012 98.54187455 -87.95251144 94.49003999 -87.93330324 90.43777815 C-87.92957049 88.98230749 -87.9323853 87.52679975 -87.9429149 86.0713624 C-88.0311241 72.93039449 -86.00851399 59.77015934 -79.67634583 48.07518005 C-79.33127991 47.41622742 -78.98621399 46.75727478 -78.63069153 46.07835388 C-67.80710448 25.91773373 -50.42101145 10.3244715 -28.42634583 3.38768005 C-18.8843324 0.64777389 -9.88477024 -0.04485217 0 0 Z M52.57365417 112.38768005 C52.57365417 210.39768005 52.57365417 308.40768005 52.57365417 409.38768005 C90.84334167 409.48049255 90.84334167 409.48049255 129.88615417 409.57518005 C137.90968201 409.60249207 145.93320984 409.62980408 154.19987488 409.65794373 C161.46045493 409.66798373 161.46045493 409.66798373 168.72103882 409.67401123 C171.92776863 409.67677987 175.13434589 409.68791552 178.34103394 409.70440674 C215.5361224 409.88710219 251.02326109 406.75483639 279.38615417 380.01268005 C293.32939058 365.43909843 298.49789459 346.16601245 298.94865417 326.45018005 C298.42804973 304.43295045 292.59587594 284.13381953 277.44865417 267.63768005 C268.57166555 259.24710177 258.0054916 254.78902178 246.46037292 251.39549255 C243.57365417 250.38768005 243.57365417 250.38768005 242.57365417 248.38768005 C243.45537292 248.12084412 244.33709167 247.85400818 245.24552917 247.5790863 C260.51899441 242.11147257 271.75579416 229.45333284 279.32365417 215.57518005 C287.58343715 197.80165365 287.22806813 174.65104048 280.57365417 156.38768005 C277.12157362 147.56336473 272.28080337 141.02532511 265.57365417 134.38768005 C264.98197449 133.76248474 264.3902948 133.13728943 263.78068542 132.4931488 C246.31025634 115.40838041 218.46231347 112.04251067 195.38859558 112.16062927 C193.79493405 112.16124362 192.20127199 112.1609721 190.6076107 112.15989876 C186.38385709 112.15945179 182.16021944 112.17094647 177.93649292 112.18511963 C173.95641256 112.19660675 169.97635878 112.19705111 165.9962616 112.19847107 C154.39704408 112.20891802 142.79784761 112.23684055 131.19865417 112.26268005 C105.25240417 112.30393005 79.30615417 112.34518005 52.57365417 112.38768005 Z " fill="#5D3B7E" transform="translate(87.42634582519531,-0.3876800537109375)"/>
<path d="M0 0 C23.0175 -0.061875 23.0175 -0.061875 46.5 -0.125 C51.31400391 -0.14320801 56.12800781 -0.16141602 61.08789062 -0.18017578 C67.04589844 -0.18920898 67.04589844 -0.18920898 69.85046387 -0.19088745 C71.77560353 -0.19392362 73.70073982 -0.20088337 75.62585449 -0.21115112 C117.00735354 -0.42049322 117.00735354 -0.42049322 132.12890625 14.03515625 C141.44973412 23.76795442 144 35.37089333 144 48.65625 C143.28631694 62.33517538 139.4086959 74.84980991 129.0859375 84.40625 C113.71521858 96.15017008 94.99816439 95.43030064 76.66015625 95.29296875 C74.43957305 95.28736131 72.21898609 95.28309665 69.99839783 95.28010559 C64.20343461 95.26874716 58.40870327 95.23935913 52.61383057 95.20599365 C45.63436931 95.16964791 38.65482976 95.1560887 31.6753006 95.13863373 C21.11670666 95.10971518 10.55861975 95.05216518 0 95 C0 63.65 0 32.3 0 0 Z " fill="#5D3A7E" transform="translate(191,273)"/>
<path d="M0 0 C21.8994099 -0.08021762 21.8994099 -0.08021762 31.30859375 -0.09765625 C37.70299644 -0.10956401 44.0973413 -0.12357782 50.49169922 -0.15087891 C55.65291855 -0.17277454 60.81407575 -0.18460353 65.97533798 -0.18975449 C67.93428397 -0.19342046 69.89322696 -0.20057821 71.85214615 -0.21146011 C109.29385435 -0.41098332 109.29385435 -0.41098332 121.5390625 11.20703125 C128.54082742 19.80010637 130.38411868 30.11480455 130.3125 40.875 C130.30686035 41.75905518 130.3012207 42.64311035 130.29541016 43.55395508 C130.08293316 54.95092646 127.09554864 63.61418714 119.11328125 71.9765625 C105.31878079 84.71411696 88.32256004 84.43687582 70.60546875 84.29296875 C68.5613893 84.28736228 66.51730577 84.28309716 64.47322083 84.28010559 C59.13524936 84.26873954 53.79752908 84.23934472 48.45965576 84.20599365 C42.03257181 84.1696689 35.60540312 84.15609233 29.17824554 84.13863373 C19.45198986 84.10970138 9.72628357 84.05215683 0 84 C0 56.28 0 28.56 0 0 Z " fill="#5E3A7E" transform="translate(191,153)"/>
</svg>
