<?xml version="1.0" encoding="UTF-8"?>
<svg version="1.1" xmlns="http://www.w3.org/2000/svg" width="1823" height="800">
<path d="M0 0 C601.59 0 1203.18 0 1823 0 C1823 264 1823 528 1823 800 C1221.41 800 619.82 800 0 800 C0 536 0 272 0 0 Z " fill="#FEFEFE" transform="translate(0,0)"/>
<path d="M0 0 C0.94946091 -0.00465992 1.89892181 -0.00931984 2.87715426 -0.01412097 C6.07706047 -0.02612669 9.27654645 -0.01665392 12.47645664 -0.00736332 C14.78638661 -0.01153378 17.09631453 -0.01700971 19.40623862 -0.02368313 C25.76828006 -0.03819406 32.13019259 -0.0338754 38.49224126 -0.02651632 C44.64421061 -0.02082608 50.79616114 -0.03208371 56.94812222 -0.04142394 C70.31065365 -0.06111013 83.67314634 -0.06343454 97.03568882 -0.05822874 C108.7299552 -0.05367501 120.42420622 -0.05426643 132.1184721 -0.06006908 C133.68593928 -0.06082594 135.25340646 -0.06158192 136.82087364 -0.06233703 C139.18278238 -0.0634822 141.54469113 -0.06463207 143.90659987 -0.06579627 C165.87119339 -0.07650442 187.8357818 -0.08122327 209.80037689 -0.07332611 C210.62869725 -0.07302894 211.4570176 -0.07273176 212.31043857 -0.07242559 C219.03737652 -0.06997654 225.7643144 -0.06736501 232.49125227 -0.06474145 C258.7341932 -0.05463793 284.97707016 -0.06299514 311.22000217 -0.086236 C340.69206331 -0.11229425 370.16408592 -0.1251604 399.636159 -0.11804825 C402.7772055 -0.11733217 405.918252 -0.11665778 409.05929852 -0.1160078 C410.21943936 -0.11575309 410.21943936 -0.11575309 411.40301739 -0.11549323 C423.09020029 -0.11318797 434.77734748 -0.12117804 446.46452236 -0.13429928 C459.75218813 -0.14919063 473.03977007 -0.15008043 486.327434 -0.13222837 C493.11088834 -0.1234905 499.89417274 -0.12164815 506.67762089 -0.13687992 C512.88230881 -0.15064001 519.08669794 -0.14607616 525.29136819 -0.12664068 C527.54097324 -0.12285359 529.79060172 -0.12587978 532.04018604 -0.13625234 C535.0890704 -0.14931526 538.13690702 -0.13793413 541.18574524 -0.12025452 C542.06698737 -0.12990503 542.94822949 -0.13955554 543.85617593 -0.14949849 C549.2655157 -0.08472678 552.36237821 0.77835017 556.65579319 4.38031673 C558.62619135 7.23192308 558.91327199 9.53629251 558.94632053 12.9618597 C558.96546009 14.31378918 558.96546009 14.31378918 558.98498631 15.69303036 C558.98832478 17.14311993 558.98832478 17.14311993 558.99173069 18.62250423 C558.99838749 19.62363247 559.00504429 20.6247607 559.01190281 21.65622616 C559.02202136 23.77273377 559.02672008 25.88927324 559.02639866 28.00580502 C559.03076794 31.23664851 559.06708599 34.46612147 559.10501194 37.69672298 C559.11088109 39.75531207 559.11484982 41.81390764 559.11673069 43.87250423 C559.13110172 44.83518215 559.14547276 45.79786007 559.16027927 46.78971004 C559.1218266 52.46138442 558.61405813 55.98176117 554.65579319 60.38031673 C551.87088232 62.06353079 549.81141467 62.63049718 546.57401615 62.63216573 C545.76359447 62.63742899 544.95317279 62.64269225 544.11819288 62.64811501 C543.23169673 62.64371852 542.34520057 62.63932204 541.4318409 62.63479233 C540.48323424 62.63799881 539.53462758 62.64120528 538.55727527 62.64450893 C535.3543415 62.65286066 532.15159221 62.64686658 528.94865513 62.64101315 C526.63887691 62.64403147 524.32909968 62.64791933 522.01932424 62.65260571 C515.65311629 62.66293557 509.28696434 62.66069125 502.92075169 62.65642512 C496.7661921 62.65324811 490.611642 62.661359 484.45708706 62.66818537 C470.31008456 62.68344464 456.16309993 62.68512848 442.01609094 62.68266235 C431.09374275 62.68083136 420.17140045 62.68258519 409.249053 62.68688679 C407.68115732 62.68748918 406.11326165 62.68809038 404.54536597 62.68869039 C402.18284714 62.68959762 399.82032832 62.69050628 397.45780949 62.69142274 C375.48571562 62.69985518 353.51362396 62.70418594 331.5415287 62.70001602 C330.29846132 62.69978146 330.29846132 62.69978146 329.03028146 62.69954216 C324.82981698 62.69873634 320.6293525 62.69789057 316.42888803 62.69702885 C315.59462716 62.69685777 314.7603663 62.69668668 313.9008248 62.69651041 C312.21374601 62.69616375 310.52666723 62.69581522 308.83958845 62.69546482 C282.58340449 62.69010654 256.3272541 62.69803987 230.07107639 62.71649837 C200.58804963 62.73720101 171.10504366 62.74794444 141.62200922 62.74392289 C138.48012253 62.74352753 135.33823584 62.74316598 132.19634914 62.74282551 C131.42270799 62.74273478 130.64906684 62.74264404 129.85198201 62.74255056 C118.15861235 62.7413832 106.46526365 62.74804339 94.77189922 62.75863743 C81.47797235 62.7706691 68.18409174 62.7722719 54.8901642 62.75984726 C48.10281528 62.75378812 41.31556239 62.75292146 34.52821827 62.76484966 C28.32112269 62.7756317 22.11419409 62.77269735 15.90710657 62.75858798 C13.6554698 62.75591974 11.40382026 62.75837348 9.15219594 62.76632384 C6.10312143 62.77634697 3.05463676 62.76807903 0.00558662 62.75504684 C-0.87856836 62.76235619 -1.76272335 62.76966554 -2.67367092 62.77719638 C-7.40158103 62.73500575 -10.49254933 62.42769371 -14.34420681 59.38031673 C-18.31994495 54.84530377 -17.77862394 49.72100672 -17.74264431 44.00531673 C-17.74551449 43.00323177 -17.74838467 42.00114681 -17.75134182 40.96869564 C-17.75337967 38.85394379 -17.74786938 36.73917296 -17.73532009 34.62445736 C-17.71926288 31.39160582 -17.73517869 28.16000449 -17.75436306 24.92719173 C-17.75238058 22.86989731 -17.7485368 20.81260367 -17.74264431 18.75531673 C-17.748717 17.79061459 -17.7547897 16.82591244 -17.76104641 15.83197689 C-17.67052756 7.1745575 -17.67052756 7.1745575 -14.34420681 3.38031673 C-9.75553427 -0.24876084 -5.59231062 -0.04264345 0 0 Z " fill="#F6F8F9" transform="translate(660.3442068099976,402.61968326568604)"/>
<path d="M0 0 C0.94946091 -0.00465992 1.89892181 -0.00931984 2.87715426 -0.01412097 C6.07706047 -0.02612669 9.27654645 -0.01665392 12.47645664 -0.00736332 C14.78638661 -0.01153378 17.09631453 -0.01700971 19.40623862 -0.02368313 C25.76828006 -0.03819406 32.13019259 -0.0338754 38.49224126 -0.02651632 C44.64421061 -0.02082608 50.79616114 -0.03208371 56.94812222 -0.04142394 C70.31065365 -0.06111013 83.67314634 -0.06343454 97.03568882 -0.05822874 C108.7299552 -0.05367501 120.42420622 -0.05426643 132.1184721 -0.06006908 C133.68593928 -0.06082594 135.25340646 -0.06158192 136.82087364 -0.06233703 C139.18278238 -0.0634822 141.54469113 -0.06463207 143.90659987 -0.06579627 C165.87119339 -0.07650442 187.8357818 -0.08122327 209.80037689 -0.07332611 C210.62869725 -0.07302894 211.4570176 -0.07273176 212.31043857 -0.07242559 C219.03737652 -0.06997654 225.7643144 -0.06736501 232.49125227 -0.06474145 C258.7341932 -0.05463793 284.97707016 -0.06299514 311.22000217 -0.086236 C340.69206331 -0.11229425 370.16408592 -0.1251604 399.636159 -0.11804825 C402.7772055 -0.11733217 405.918252 -0.11665778 409.05929852 -0.1160078 C410.21943936 -0.11575309 410.21943936 -0.11575309 411.40301739 -0.11549323 C423.09020029 -0.11318797 434.77734748 -0.12117804 446.46452236 -0.13429928 C459.75218813 -0.14919063 473.03977007 -0.15008043 486.327434 -0.13222837 C493.11088834 -0.1234905 499.89417274 -0.12164815 506.67762089 -0.13687992 C512.88230881 -0.15064001 519.08669794 -0.14607616 525.29136819 -0.12664068 C527.54097324 -0.12285359 529.79060172 -0.12587978 532.04018604 -0.13625234 C535.0890704 -0.14931526 538.13690702 -0.13793413 541.18574524 -0.12025452 C542.06698737 -0.12990503 542.94822949 -0.13955554 543.85617593 -0.14949849 C549.2655157 -0.08472678 552.36237821 0.77835017 556.65579319 4.38031673 C558.62619135 7.23192308 558.91327199 9.53629251 558.94632053 12.9618597 C558.96546009 14.31378918 558.96546009 14.31378918 558.98498631 15.69303036 C558.98832478 17.14311993 558.98832478 17.14311993 558.99173069 18.62250423 C558.99838749 19.62363247 559.00504429 20.6247607 559.01190281 21.65622616 C559.02202136 23.77273377 559.02672008 25.88927324 559.02639866 28.00580502 C559.03076794 31.23664851 559.06708599 34.46612147 559.10501194 37.69672298 C559.11088109 39.75531207 559.11484982 41.81390764 559.11673069 43.87250423 C559.13110172 44.83518215 559.14547276 45.79786007 559.16027927 46.78971004 C559.1218266 52.46138442 558.61405813 55.98176117 554.65579319 60.38031673 C551.87088232 62.06353079 549.81141467 62.63049718 546.57401615 62.63216573 C545.76359447 62.63742899 544.95317279 62.64269225 544.11819288 62.64811501 C543.23169673 62.64371852 542.34520057 62.63932204 541.4318409 62.63479233 C540.48323424 62.63799881 539.53462758 62.64120528 538.55727527 62.64450893 C535.3543415 62.65286066 532.15159221 62.64686658 528.94865513 62.64101315 C526.63887691 62.64403147 524.32909968 62.64791933 522.01932424 62.65260571 C515.65311629 62.66293557 509.28696434 62.66069125 502.92075169 62.65642512 C496.7661921 62.65324811 490.611642 62.661359 484.45708706 62.66818537 C470.31008456 62.68344464 456.16309993 62.68512848 442.01609094 62.68266235 C431.09374275 62.68083136 420.17140045 62.68258519 409.249053 62.68688679 C407.68115732 62.68748918 406.11326165 62.68809038 404.54536597 62.68869039 C402.18284714 62.68959762 399.82032832 62.69050628 397.45780949 62.69142274 C375.48571562 62.69985518 353.51362396 62.70418594 331.5415287 62.70001602 C330.29846132 62.69978146 330.29846132 62.69978146 329.03028146 62.69954216 C324.82981698 62.69873634 320.6293525 62.69789057 316.42888803 62.69702885 C315.59462716 62.69685777 314.7603663 62.69668668 313.9008248 62.69651041 C312.21374601 62.69616375 310.52666723 62.69581522 308.83958845 62.69546482 C282.58340449 62.69010654 256.3272541 62.69803987 230.07107639 62.71649837 C200.58804963 62.73720101 171.10504366 62.74794444 141.62200922 62.74392289 C138.48012253 62.74352753 135.33823584 62.74316598 132.19634914 62.74282551 C131.42270799 62.74273478 130.64906684 62.74264404 129.85198201 62.74255056 C118.15861235 62.7413832 106.46526365 62.74804339 94.77189922 62.75863743 C81.47797235 62.7706691 68.18409174 62.7722719 54.8901642 62.75984726 C48.10281528 62.75378812 41.31556239 62.75292146 34.52821827 62.76484966 C28.32112269 62.7756317 22.11419409 62.77269735 15.90710657 62.75858798 C13.6554698 62.75591974 11.40382026 62.75837348 9.15219594 62.76632384 C6.10312143 62.77634697 3.05463676 62.76807903 0.00558662 62.75504684 C-0.87856836 62.76235619 -1.76272335 62.76966554 -2.67367092 62.77719638 C-7.40158103 62.73500575 -10.49254933 62.42769371 -14.34420681 59.38031673 C-18.31994495 54.84530377 -17.77862394 49.72100672 -17.74264431 44.00531673 C-17.74551449 43.00323177 -17.74838467 42.00114681 -17.75134182 40.96869564 C-17.75337967 38.85394379 -17.74786938 36.73917296 -17.73532009 34.62445736 C-17.71926288 31.39160582 -17.73517869 28.16000449 -17.75436306 24.92719173 C-17.75238058 22.86989731 -17.7485368 20.81260367 -17.74264431 18.75531673 C-17.748717 17.79061459 -17.7547897 16.82591244 -17.76104641 15.83197689 C-17.67052756 7.1745575 -17.67052756 7.1745575 -14.34420681 3.38031673 C-9.75553427 -0.24876084 -5.59231062 -0.04264345 0 0 Z " fill="#F7F8F9" transform="translate(660.3442068099976,268.61968326568604)"/>
<path d="M0 0 C0.94946091 -0.00465992 1.89892181 -0.00931984 2.87715426 -0.01412097 C6.07706047 -0.02612669 9.27654645 -0.01665392 12.47645664 -0.00736332 C14.78638661 -0.01153378 17.09631453 -0.01700971 19.40623862 -0.02368313 C25.76828006 -0.03819406 32.13019259 -0.0338754 38.49224126 -0.02651632 C44.64421061 -0.02082608 50.79616114 -0.03208371 56.94812222 -0.04142394 C70.31065365 -0.06111013 83.67314634 -0.06343454 97.03568882 -0.05822874 C108.7299552 -0.05367501 120.42420622 -0.05426643 132.1184721 -0.06006908 C133.68593928 -0.06082594 135.25340646 -0.06158192 136.82087364 -0.06233703 C139.18278238 -0.0634822 141.54469113 -0.06463207 143.90659987 -0.06579627 C165.87119339 -0.07650442 187.8357818 -0.08122327 209.80037689 -0.07332611 C210.62869725 -0.07302894 211.4570176 -0.07273176 212.31043857 -0.07242559 C219.03737652 -0.06997654 225.7643144 -0.06736501 232.49125227 -0.06474145 C258.7341932 -0.05463793 284.97707016 -0.06299514 311.22000217 -0.086236 C340.69206331 -0.11229425 370.16408592 -0.1251604 399.636159 -0.11804825 C402.7772055 -0.11733217 405.918252 -0.11665778 409.05929852 -0.1160078 C410.21943936 -0.11575309 410.21943936 -0.11575309 411.40301739 -0.11549323 C423.09020029 -0.11318797 434.77734748 -0.12117804 446.46452236 -0.13429928 C459.75218813 -0.14919063 473.03977007 -0.15008043 486.327434 -0.13222837 C493.11088834 -0.1234905 499.89417274 -0.12164815 506.67762089 -0.13687992 C512.88230881 -0.15064001 519.08669794 -0.14607616 525.29136819 -0.12664068 C527.54097324 -0.12285359 529.79060172 -0.12587978 532.04018604 -0.13625234 C535.0890704 -0.14931526 538.13690702 -0.13793413 541.18574524 -0.12025452 C542.06698737 -0.12990503 542.94822949 -0.13955554 543.85617593 -0.14949849 C549.2655157 -0.08472678 552.36237821 0.77835017 556.65579319 4.38031673 C558.62619135 7.23192308 558.91327199 9.53629251 558.94632053 12.9618597 C558.96546009 14.31378918 558.96546009 14.31378918 558.98498631 15.69303036 C558.98832478 17.14311993 558.98832478 17.14311993 558.99173069 18.62250423 C558.99838749 19.62363247 559.00504429 20.6247607 559.01190281 21.65622616 C559.02202136 23.77273377 559.02672008 25.88927324 559.02639866 28.00580502 C559.03076794 31.23664851 559.06708599 34.46612147 559.10501194 37.69672298 C559.11088109 39.75531207 559.11484982 41.81390764 559.11673069 43.87250423 C559.13110172 44.83518215 559.14547276 45.79786007 559.16027927 46.78971004 C559.1218266 52.46138442 558.61405813 55.98176117 554.65579319 60.38031673 C551.87088232 62.06353079 549.81141467 62.63049718 546.57401615 62.63216573 C545.76359447 62.63742899 544.95317279 62.64269225 544.11819288 62.64811501 C543.23169673 62.64371852 542.34520057 62.63932204 541.4318409 62.63479233 C540.48323424 62.63799881 539.53462758 62.64120528 538.55727527 62.64450893 C535.3543415 62.65286066 532.15159221 62.64686658 528.94865513 62.64101315 C526.63887691 62.64403147 524.32909968 62.64791933 522.01932424 62.65260571 C515.65311629 62.66293557 509.28696434 62.66069125 502.92075169 62.65642512 C496.7661921 62.65324811 490.611642 62.661359 484.45708706 62.66818537 C470.31008456 62.68344464 456.16309993 62.68512848 442.01609094 62.68266235 C431.09374275 62.68083136 420.17140045 62.68258519 409.249053 62.68688679 C407.68115732 62.68748918 406.11326165 62.68809038 404.54536597 62.68869039 C402.18284714 62.68959762 399.82032832 62.69050628 397.45780949 62.69142274 C375.48571562 62.69985518 353.51362396 62.70418594 331.5415287 62.70001602 C330.29846132 62.69978146 330.29846132 62.69978146 329.03028146 62.69954216 C324.82981698 62.69873634 320.6293525 62.69789057 316.42888803 62.69702885 C315.59462716 62.69685777 314.7603663 62.69668668 313.9008248 62.69651041 C312.21374601 62.69616375 310.52666723 62.69581522 308.83958845 62.69546482 C282.58340449 62.69010654 256.3272541 62.69803987 230.07107639 62.71649837 C200.58804963 62.73720101 171.10504366 62.74794444 141.62200922 62.74392289 C138.48012253 62.74352753 135.33823584 62.74316598 132.19634914 62.74282551 C131.42270799 62.74273478 130.64906684 62.74264404 129.85198201 62.74255056 C118.15861235 62.7413832 106.46526365 62.74804339 94.77189922 62.75863743 C81.47797235 62.7706691 68.18409174 62.7722719 54.8901642 62.75984726 C48.10281528 62.75378812 41.31556239 62.75292146 34.52821827 62.76484966 C28.32112269 62.7756317 22.11419409 62.77269735 15.90710657 62.75858798 C13.6554698 62.75591974 11.40382026 62.75837348 9.15219594 62.76632384 C6.10312143 62.77634697 3.05463676 62.76807903 0.00558662 62.75504684 C-0.87856836 62.76235619 -1.76272335 62.76966554 -2.67367092 62.77719638 C-7.40158103 62.73500575 -10.49254933 62.42769371 -14.34420681 59.38031673 C-18.31994495 54.84530377 -17.77862394 49.72100672 -17.74264431 44.00531673 C-17.74551449 43.00323177 -17.74838467 42.00114681 -17.75134182 40.96869564 C-17.75337967 38.85394379 -17.74786938 36.73917296 -17.73532009 34.62445736 C-17.71926288 31.39160582 -17.73517869 28.16000449 -17.75436306 24.92719173 C-17.75238058 22.86989731 -17.7485368 20.81260367 -17.74264431 18.75531673 C-17.748717 17.79061459 -17.7547897 16.82591244 -17.76104641 15.83197689 C-17.67052756 7.1745575 -17.67052756 7.1745575 -14.34420681 3.38031673 C-9.75553427 -0.24876084 -5.59231062 -0.04264345 0 0 Z " fill="#F7F8F9" transform="translate(660.3442068099976,134.61968326568604)"/>
<path d="M0 0 C1.05423157 -0.00686325 2.10846313 -0.0137265 3.19464111 -0.02079773 C6.67750539 -0.03909037 10.15992028 -0.03522457 13.64282227 -0.02954102 C16.06511075 -0.03410161 18.48739793 -0.03940682 20.90968323 -0.04542542 C25.98622901 -0.05436138 31.06261752 -0.05192773 36.13916016 -0.04199219 C42.64380994 -0.03050203 49.14791691 -0.05071291 55.65249538 -0.07990932 C60.65480496 -0.0982577 65.65698414 -0.09798153 70.65931892 -0.0922718 C73.05749333 -0.09211842 75.45567648 -0.09817648 77.85381889 -0.11056328 C81.20757957 -0.12544508 84.56033327 -0.11481574 87.9140625 -0.09765625 C89.39876793 -0.1121582 89.39876793 -0.1121582 90.91346741 -0.12695312 C96.58584248 -0.06619834 100.12456914 0.44156493 104.52172852 4.40405273 C106.49212668 7.25565908 106.77920731 9.56002851 106.81225586 12.9855957 C106.82501556 13.88688202 106.83777527 14.78816833 106.85092163 15.71676636 C106.85314728 16.68349274 106.85537292 17.65021912 106.85766602 18.64624023 C106.86765121 20.14793259 106.86765121 20.14793259 106.87783813 21.67996216 C106.88795668 23.79646977 106.8926554 25.91300924 106.89233398 28.02954102 C106.89670327 31.26038451 106.93302131 34.48985747 106.97094727 37.72045898 C106.97681641 39.77904807 106.98078515 41.83764364 106.98266602 43.89624023 C106.99703705 44.85891815 107.01140808 45.82159607 107.0262146 46.81344604 C106.98776193 52.48512042 106.47999345 56.00549717 102.52172852 60.40405273 C99.57965777 62.21051885 97.37270633 62.65697002 93.94302368 62.67147827 C93.02905319 62.68000824 92.1150827 62.68853821 91.17341614 62.69732666 C90.17799301 62.69642029 89.18256989 62.69551392 88.15698242 62.69458008 C87.10289688 62.7012973 86.04881134 62.70801453 84.96278381 62.7149353 C81.47457174 62.73394955 77.98655171 62.73784123 74.49829102 62.73999023 C72.07457398 62.74641566 69.65085773 62.75314383 67.22714233 62.76016235 C62.14465537 62.77214363 57.06223642 62.77584228 51.97973633 62.7746582 C45.46723569 62.77445494 38.95517109 62.801761 32.44277382 62.83620262 C27.43618771 62.85844007 22.42970707 62.86249671 17.42307663 62.86143875 C15.02210359 62.86379931 12.62112785 62.87264831 10.2202034 62.88810349 C6.8615795 62.90769925 3.50390282 62.90194991 0.14526367 62.88989258 C-1.34179832 62.9067511 -1.34179832 62.9067511 -2.85890198 62.9239502 C-8.53739822 62.87214914 -12.07714802 62.37348483 -16.47827148 58.40405273 C-18.45645395 55.54471688 -18.73297314 53.24241668 -18.75292969 49.80664062 C-18.7624617 48.90212662 -18.77199371 47.99761261 -18.78181458 47.06568909 C-18.78090317 46.09582565 -18.77999176 45.12596222 -18.77905273 44.12670898 C-18.78333786 43.12320908 -18.78762299 42.11970917 -18.79203796 41.08580017 C-18.79777684 38.96508539 -18.79828479 36.84435092 -18.79394531 34.72363281 C-18.79078654 31.48199829 -18.81424638 28.2412775 -18.83959961 24.99975586 C-18.84187278 22.93790805 -18.84257602 20.87605779 -18.84155273 18.81420898 C-18.85076248 17.84636978 -18.85997223 16.87853058 -18.86946106 15.88136292 C-18.80985527 7.19554141 -18.80985527 7.19554141 -15.47827148 3.40405273 C-10.72464031 -0.48745184 -5.84861599 -0.02654534 0 0 Z " fill="#F3F4F4" transform="translate(948.478271484375,628.595947265625)"/>
<path d="M0 0 C0.93501846 -0.01004562 1.87003693 -0.02009125 2.83338928 -0.03044128 C3.86248413 -0.03627228 4.89157898 -0.04210327 5.95185852 -0.04811096 C7.03330643 -0.05789474 8.11475433 -0.06767853 9.22897339 -0.07775879 C12.82058981 -0.10775964 16.41216884 -0.12911214 20.00386047 -0.14796448 C21.22893625 -0.1545363 22.45401203 -0.16110813 23.71621132 -0.1678791 C29.53237276 -0.19712866 35.34851849 -0.22104457 41.16472787 -0.23831123 C47.20502313 -0.25662854 53.24480609 -0.28994106 59.28486633 -0.34693909 C65.764649 -0.40708671 72.24394475 -0.43786898 78.7239933 -0.44757271 C81.19395927 -0.45613851 83.66391185 -0.47498396 86.13371849 -0.50431633 C89.59320745 -0.54318757 93.05079711 -0.54426999 96.51045227 -0.53639221 C98.03891281 -0.56639313 98.03891281 -0.56639313 99.59825134 -0.59700012 C105.6538584 -0.53515543 108.94277776 0.39577663 113.31400776 4.67732143 C115.46586568 7.25009295 115.69466536 9.04313144 115.76338196 12.31565857 C115.78267258 13.17382675 115.8019632 14.03199493 115.82183838 14.91616821 C115.87965265 18.8526742 115.92888305 22.78899708 115.95967102 26.72581482 C115.98122683 28.7985757 116.01530085 30.87124614 116.06221008 32.94358826 C116.12934444 35.93692043 116.15669429 38.92836828 116.17573547 41.92234802 C116.20356613 42.8423912 116.23139679 43.76243439 116.2600708 44.71035767 C116.2414269 50.58291625 115.14829494 53.64681725 111.0406189 57.8916626 C108.37700442 60.1662857 106.52440762 60.29246594 103.10928345 60.32125854 C102.17426498 60.33130417 101.23924652 60.34134979 100.27589417 60.35169983 C99.24679932 60.35753082 98.21770447 60.36336182 97.15742493 60.36936951 C96.07597702 60.37915329 94.99452911 60.38893707 93.88031006 60.39901733 C90.28869364 60.42901818 86.69711461 60.45037069 83.10542297 60.46922302 C81.88034719 60.47579485 80.65527142 60.48236668 79.39307213 60.48913765 C73.57691069 60.5183872 67.76076495 60.54230312 61.94455558 60.55956978 C55.90426032 60.57788708 49.86447735 60.6111996 43.82441711 60.66819763 C37.34463445 60.72834525 30.86533869 60.75912753 24.38529015 60.76883125 C21.91532418 60.77739706 19.4453716 60.79624251 16.97556496 60.82557487 C13.516076 60.86444611 10.05848634 60.86552854 6.59883118 60.85765076 C5.57985748 60.87765137 4.56088379 60.89765198 3.5110321 60.91825867 C-2.54457495 60.85641398 -5.83349431 59.92548191 -10.20472431 55.64393711 C-12.35658224 53.0711656 -12.58538191 51.27812711 -12.65409851 48.00559998 C-12.67338913 47.14743179 -12.69267975 46.28926361 -12.71255493 45.40509033 C-12.7703692 41.46858435 -12.8195996 37.53226146 -12.85038757 33.59544373 C-12.87194338 31.52268285 -12.9060174 29.4500124 -12.95292664 27.37767029 C-13.02006099 24.38433811 -13.04741084 21.39289026 -13.06645203 18.39891052 C-13.09428268 17.47886734 -13.12211334 16.55882416 -13.15078735 15.61090088 C-13.13214345 9.7383423 -12.0390115 6.67444129 -7.93133545 2.42959595 C-5.26772097 0.15497284 -3.41512417 0.02879261 0 0 Z " fill="#1E4ED8" transform="translate(807.4453582763672,629.8393707275391)"/>
<path d="M0 0 C2.9375 0.375 2.9375 0.375 6 1 C9.41099168 1 12.63088314 0.50854594 16 0 C16.33 0.66 16.66 1.32 17 2 C17.99 1.34 18.98 0.68 20 0 C21.32 0 22.64 0 24 0 C24 0.66 24 1.32 24 2 C22.68 2 21.36 2 20 2 C21.25541557 4.51083114 22.50063488 4.87125446 25 6 C25 7.32 25 8.64 25 10 C22.2761601 11.36191995 20.01903173 11.06161289 17 11 C14.90481682 11 12.8095472 11.02547937 10.71484375 11.0703125 C9.46832031 11.08835937 8.22179687 11.10640625 6.9375 11.125 C5.68839844 11.14820313 4.43929687 11.17140625 3.15234375 11.1953125 C0 11 0 11 -2 9 C-2.25 5.5 -2.25 5.5 -2 2 C-1.34 1.34 -0.68 0.68 0 0 Z " fill="#E6E6DF" transform="translate(757,508)"/>
<path d="M0 0 C0.66 0 1.32 0 2 0 C2 0.99 2 1.98 2 3 C3.15628906 2.96519531 3.15628906 2.96519531 4.3359375 2.9296875 C5.33882812 2.91164063 6.34171875 2.89359375 7.375 2.875 C8.37273438 2.85179687 9.37046875 2.82859375 10.3984375 2.8046875 C13 3 13 3 15 5 C15.1953125 7.1640625 15.1953125 7.1640625 15.125 9.625 C15.10695313 10.44226563 15.08890625 11.25953125 15.0703125 12.1015625 C15.04710937 12.72804688 15.02390625 13.35453125 15 14 C4.75 14 4.75 14 0 13 C0 10.36 0 7.72 0 5 C-0.66 5 -1.32 5 -2 5 C-2 4.34 -2 3.68 -2 3 C-1.34 3 -0.68 3 0 3 C0 2.01 0 1.02 0 0 Z " fill="#E7F2F0" transform="translate(732,371)"/>
<path d="M0 0 C0 0.99 0 1.98 0 3 C0.556875 2.484375 1.11375 1.96875 1.6875 1.4375 C4 0 4 0 6.75 0.3125 C7.86375 0.6528125 7.86375 0.6528125 9 1 C9.33 2.32 9.66 3.64 10 5 C7.69 5 5.38 5 3 5 C3.33 5.99 3.66 6.98 4 8 C5.98 8 7.96 8 10 8 C9.67 8.99 9.34 9.98 9 11 C6.6568787 10.74438677 4.32156597 10.40729228 2 10 C1.67 9.34 1.34 8.68 1 8 C0.67 8.99 0.34 9.98 0 11 C-5.42857143 11.36190476 -5.42857143 11.36190476 -7.875 9.8125 C-9.40659584 7.34492892 -9.42822025 5.85480169 -9 3 C-6.71619742 -0.67945972 -4.04424788 -0.26961653 0 0 Z " fill="#ECF3F5" transform="translate(1007,658)"/>
<path d="M0 0 C0.33 0.66 0.66 1.32 1 2 C1.556875 1.67 2.11375 1.34 2.6875 1 C5.30284522 -0.1309601 7.1806646 -0.15662974 10 0 C10 0.66 10 1.32 10 2 C8.35 2 6.7 2 5 2 C5 2.99 5 3.98 5 5 C7.475 5.99 7.475 5.99 10 7 C10 8.32 10 9.64 10 11 C7.29120665 12.35439668 4.99066732 12.06501451 2 12 C1.67 11.34 1.34 10.68 1 10 C0.01 10.66 -0.98 11.32 -2 12 C-4.6875 12.125 -4.6875 12.125 -7 12 C-7 11.34 -7 10.68 -7 10 C-5.35 10 -3.7 10 -2 10 C-2 9.01 -2 8.02 -2 7 C-4.475 6.01 -4.475 6.01 -7 5 C-7 3.68 -7 2.36 -7 1 C-4.53721199 -0.231394 -2.7204945 -0.07159196 0 0 Z " fill="#878587" transform="translate(127,43)"/>
<path d="M0 0 C0.33 0.99 0.66 1.98 1 3 C1.99 3.33 2.98 3.66 4 4 C3.01 4 2.02 4 1 4 C2.32 4 3.64 4 5 4 C6.19625 3.79375 7.3925 3.5875 8.625 3.375 C9.73875 3.25125 10.8525 3.1275 12 3 C14 5 14 5 14.1953125 7.1640625 C14.17210937 7.97617187 14.14890625 8.78828125 14.125 9.625 C14.10695313 10.44226563 14.08890625 11.25953125 14.0703125 12.1015625 C14.04710937 12.72804688 14.02390625 13.35453125 14 14 C4 14 4 14 0 13 C0 10.03 0 7.06 0 4 C-0.66 3.67 -1.32 3.34 -2 3 C-1.34 3 -0.68 3 0 3 C0 2.01 0 1.02 0 0 Z " fill="#C9C8CD" transform="translate(699,429)"/>
<path d="M0 0 C3.7 1.4 3.7 1.4 5 4 C5.1875 7.5 5.1875 7.5 5 11 C3 13 3 13 0.87109375 13.23046875 C0.06800781 13.21628906 -0.73507812 13.20210938 -1.5625 13.1875 C-2.77099609 13.17783203 -2.77099609 13.17783203 -4.00390625 13.16796875 C-6 13 -6 13 -7 12 C-7.1875 9.0625 -7.1875 9.0625 -7 6 C-5 4 -5 4 -2.375 3.875 C-1.59125 3.91625 -0.8075 3.9575 0 4 C0.33 6.31 0.66 8.62 1 11 C1.33 11 1.66 11 2 11 C2.25015873 7.58357241 2.25015873 7.58357241 2 4 C-0.82568546 1.67961905 -0.82568546 1.67961905 -4.0625 2.1875 C-7.29740953 2.73754498 -7.29740953 2.73754498 -9 6 C-8.9068565 10.34170904 -8.9068565 10.34170904 -7 14 C-5.48530552 14.23192865 -3.96245438 14.41215238 -2.4375 14.5625 C-1.61121094 14.64628906 -0.78492188 14.73007812 0.06640625 14.81640625 C0.70449219 14.87699219 1.34257813 14.93757813 2 15 C1.67 15.66 1.34 16.32 1 17 C-6.16883117 17.47792208 -6.16883117 17.47792208 -9.5 15.5625 C-11.72920717 11.75427109 -11.90705593 8.29865635 -11 4 C-7.73077136 0.05769488 -5.00611634 -0.63907868 0 0 Z " fill="#B1B0BE" transform="translate(724,294)"/>
<path d="M0 0 C0.33 0.99 0.66 1.98 1 3 C1.99 3 2.98 3 4 3 C4 3.66 4 4.32 4 5 C3.01 5 2.02 5 1 5 C1 7.31 1 9.62 1 12 C1.99 12 2.98 12 4 12 C4 12.66 4 13.32 4 14 C-0.875 13.125 -0.875 13.125 -2 12 C-2.33 12.66 -2.66 13.32 -3 14 C-8.42857143 14.36190476 -8.42857143 14.36190476 -10.875 12.8125 C-12.40659584 10.34492892 -12.42822025 8.85480169 -12 6 C-10.8125 4.1875 -10.8125 4.1875 -9 3 C-6.3125 2.8125 -6.3125 2.8125 -4 3 C-3.67 3.99 -3.34 4.98 -3 6 C-3 5.01 -3 4.02 -3 3 C-2.34 3 -1.68 3 -1 3 C-0.67 2.01 -0.34 1.02 0 0 Z " fill="#EBF4FA" transform="translate(761,371)"/>
<path d="M0 0 C0.99 0 1.98 0 3 0 C3.33 1.65 3.66 3.3 4 5 C4.78375 4.95875 5.5675 4.9175 6.375 4.875 C9 5 9 5 11 7 C11.25 10.5 11.25 10.5 11 14 C9 16 9 16 6.8359375 16.1953125 C4.55729167 16.13020833 2.27864583 16.06510417 0 16 C0 10.72 0 5.44 0 0 Z " fill="#D9ECFB" transform="translate(850,653)"/>
<path d="M0 0 C3.04386724 -0.08226668 5.07175348 0.02391783 8 1 C8.33 0.67 8.66 0.34 9 0 C10.66617115 -0.04063832 12.33388095 -0.042721 14 0 C14 0.66 14 1.32 14 2 C12.68 2 11.36 2 10 2 C11.65 3.65 13.3 5.3 15 7 C14.34 8.32 13.68 9.64 13 11 C11.02 11 9.04 11 7 11 C6.67 10.34 6.34 9.68 6 9 C5.34 9.66 4.68 10.32 4 11 C1.375 11.125 1.375 11.125 -1 11 C-1 10.34 -1 9.68 -1 9 C0.65 9 2.3 9 4 9 C4 8.34 4 7.68 4 7 C1.525 6.01 1.525 6.01 -1 5 C-0.67 3.35 -0.34 1.7 0 0 Z " fill="#F5F1F0" transform="translate(718,566)"/>
<path d="M0 0 C1.65 0 3.3 0 5 0 C5.33 0.66 5.66 1.32 6 2 C6.99 1.34 7.98 0.68 9 0 C11.6875 -0.125 11.6875 -0.125 14 0 C14 0.66 14 1.32 14 2 C12.35 2 10.7 2 9 2 C10.25541557 4.51083114 11.50063488 4.87125446 14 6 C13.67 7.65 13.34 9.3 13 11 C11.02 11 9.04 11 7 11 C7 10.34 7 9.68 7 9 C6.01 9.66 5.02 10.32 4 11 C0.8125 11.125 0.8125 11.125 -2 11 C-2 10.34 -2 9.68 -2 9 C-0.35 9 1.3 9 3 9 C1.35 7.35 -0.3 5.7 -2 4 C-1.34 2.68 -0.68 1.36 0 0 Z " fill="#F0F3F6" transform="translate(759,298)"/>
<path d="M0 0 C1.58873246 3.17746491 1.41026221 6.54012202 1 10 C-0.5 12.5 -0.5 12.5 -2 14 C-4.375 13.6875 -4.375 13.6875 -7 13 C-9.5406327 9.18905096 -9.58489947 6.46566106 -9 2 C-6.80604939 -2.02224279 -4.01771459 -1.13544108 0 0 Z " fill="#ADADBC" transform="translate(831,429)"/>
<path d="M0 0 C0.99 0 1.98 0 3 0 C3 5.28 3 10.56 3 16 C0.36 16 -2.28 16 -5 16 C-7 14 -7 14 -7.25 10.5 C-7 7 -7 7 -5 5 C-3.68 5 -2.36 5 -1 5 C-0.67 3.35 -0.34 1.7 0 0 Z " fill="#3E535B" transform="translate(729,503)"/>
<path d="M0 0 C2.5625 0.1875 2.5625 0.1875 4.5625 2.1875 C4.27645102 3.86292976 3.94468767 5.53135343 3.5625 7.1875 C3.8925 7.5175 4.2225 7.8475 4.5625 8.1875 C4.75 10.625 4.75 10.625 4.5625 13.1875 C2.5625 15.1875 2.5625 15.1875 0.0625 15.4375 C-2.4375 15.1875 -2.4375 15.1875 -4.4375 13.1875 C-4.5625 10.75 -4.5625 10.75 -4.4375 8.1875 C-4.4375 7.1975 -4.4375 6.2075 -4.4375 5.1875 C-3.4237069 0.26336207 -3.4237069 0.26336207 0 0 Z " fill="#AEAEBB" transform="translate(945.4375,427.8125)"/>
<path d="M0 0 C2.45862401 -0.05383848 4.9160755 -0.09359038 7.375 -0.125 C8.42300781 -0.15013672 8.42300781 -0.15013672 9.4921875 -0.17578125 C11.32897486 -0.19344267 13.16601963 -0.10303261 15 0 C17 2 17 2 17.1953125 4.1640625 C17.17210937 4.97617187 17.14890625 5.78828125 17.125 6.625 C17.10695313 7.44226563 17.08890625 8.25953125 17.0703125 9.1015625 C17.04710937 9.72804688 17.02390625 10.35453125 17 11 C16.01 11 15.02 11 14 11 C13.67 8.36 13.34 5.72 13 3 C12.34 3 11.68 3 11 3 C10.67 5.64 10.34 8.28 10 11 C9.01 11 8.02 11 7 11 C6.67 8.36 6.34 5.72 6 3 C5.34 3 4.68 3 4 3 C3.67 5.64 3.34 8.28 3 11 C2.01 11 1.02 11 0 11 C0 7.37 0 3.74 0 0 Z " fill="#E7F1FA" transform="translate(863,658)"/>
<path d="M0 0 C0.66 0 1.32 0 2 0 C2 5.28 2 10.56 2 16 C-0.64 16 -3.28 16 -6 16 C-8 14 -8 14 -8.3125 11.0625 C-8 8 -8 8 -6.75 6.125 C-5 5 -5 5 -1 5 C-0.67 3.35 -0.34 1.7 0 0 Z " fill="#AFB0BC" transform="translate(694,561)"/>
<path d="M0 0 C0.66 0 1.32 0 2 0 C2.33 1.65 2.66 3.3 3 5 C3.78375 4.95875 4.5675 4.9175 5.375 4.875 C8 5 8 5 10 7 C10.3267107 10.07108055 10.48138276 12.15050101 8.9375 14.875 C7 16 7 16 0 16 C0 10.72 0 5.44 0 0 Z " fill="#AEADBC" transform="translate(780,427)"/>
<path d="M0 0 C0.66 0 1.32 0 2 0 C2.33 1.98 2.66 3.96 3 6 C3.78375 5.79375 4.5675 5.5875 5.375 5.375 C6.674375 5.189375 6.674375 5.189375 8 5 C10 7 10 7 10.3125 9.9375 C10 13 10 13 8.9375 14.875 C7 16 7 16 0 16 C0 10.72 0 5.44 0 0 Z " fill="#2F1E2E" transform="translate(820,369)"/>
<path d="M0 0 C0.66 0 1.32 0 2 0 C2 5.28 2 10.56 2 16 C-5 16 -5 16 -6.9375 14.8125 C-8.38718434 12.33950907 -8.42317323 10.82115488 -8 8 C-6.75 6.1875 -6.75 6.1875 -5 5 C-3.68 5 -2.36 5 -1 5 C-0.67 3.35 -0.34 1.7 0 0 Z " fill="#482F2F" transform="translate(742,503)"/>
<path d="M0 0 C4 1 4 1 5.484375 2.84765625 C5.90203125 3.57855469 6.3196875 4.30945313 6.75 5.0625 C7.39195312 6.16271484 7.39195312 6.16271484 8.046875 7.28515625 C8.36140625 7.85105469 8.6759375 8.41695313 9 9 C9.33 6.03 9.66 3.06 10 0 C10.99 0 11.98 0 13 0 C13 4.95 13 9.9 13 15 C8.40804906 13.85201226 8.12179476 13.26471427 5.75 9.4375 C5.22921875 8.61121094 4.7084375 7.78492188 4.171875 6.93359375 C3.78515625 6.29550781 3.3984375 5.65742188 3 5 C2.67 8.3 2.34 11.6 2 15 C1.34 15 0.68 15 0 15 C0 10.05 0 5.1 0 0 Z " fill="#503A30" transform="translate(773,370)"/>
<path d="M0 0 C4.59195094 1.14798774 4.87820524 1.73528573 7.25 5.5625 C8.03117188 6.80193359 8.03117188 6.80193359 8.828125 8.06640625 C9.21484375 8.70449219 9.6015625 9.34257813 10 10 C10.33 6.7 10.66 3.4 11 0 C11.66 0 12.32 0 13 0 C13 4.95 13 9.9 13 15 C9 14 9 14 7.515625 12.15234375 C7.09796875 11.42144531 6.6803125 10.69054687 6.25 9.9375 C5.82203125 9.20402344 5.3940625 8.47054687 4.953125 7.71484375 C4.63859375 7.14894531 4.3240625 6.58304687 4 6 C3.67 8.97 3.34 11.94 3 15 C2.01 15 1.02 15 0 15 C0 10.05 0 5.1 0 0 Z " fill="#455050" transform="translate(693,102)"/>
<path d="M0 0 C0.66 0 1.32 0 2 0 C2 5.28 2 10.56 2 16 C-0.31 16 -2.62 16 -5 16 C-7 14 -7 14 -7.25 10.5 C-7 7 -7 7 -5 5 C-2.375 4.875 -2.375 4.875 0 5 C0 3.35 0 1.7 0 0 Z " fill="#B1AEB7" transform="translate(681,561)"/>
<path d="M0 0 C4 1 4 1 5.921875 3.50390625 C6.52515625 4.51324219 7.1284375 5.52257813 7.75 6.5625 C8.67039062 8.08037109 8.67039062 8.08037109 9.609375 9.62890625 C10.06828125 10.41136719 10.5271875 11.19382812 11 12 C11.33 8.04 11.66 4.08 12 0 C12.66 0 13.32 0 14 0 C14 5.61 14 11.22 14 17 C10 16 10 16 8.078125 13.27734375 C7.47484375 12.17519531 6.8715625 11.07304688 6.25 9.9375 C5.63640625 8.83277344 5.0228125 7.72804688 4.390625 6.58984375 C3.93171875 5.73519531 3.4728125 4.88054688 3 4 C2.67 8.29 2.34 12.58 2 17 C1.34 17 0.68 17 0 17 C0 11.39 0 5.78 0 0 Z " fill="#422A2E" transform="translate(33,38)"/>
<path d="M0 0 C2.4375 0.75 2.4375 0.75 4.4375 2.75 C4.68172155 6.04699091 4.63813433 8.90287727 3.875 12.125 C1.54889737 14.75450732 -1.20579111 14.5013549 -4.5625 14.75 C-4.5625 14.09 -4.5625 13.43 -4.5625 12.75 C-2.9125 12.42 -1.2625 12.09 0.4375 11.75 C0.7675 10.76 1.0975 9.77 1.4375 8.75 C0.65375 8.79125 -0.13 8.8325 -0.9375 8.875 C-3.5625 8.75 -3.5625 8.75 -5.5625 6.75 C-5.875 4.25 -5.875 4.25 -5.5625 1.75 C-2.5625 -0.25 -2.5625 -0.25 0 0 Z " fill="#B9B4BB" transform="translate(957.5625,428.25)"/>
<path d="M0 0 C1.33359073 6.42548263 1.33359073 6.42548263 -0.125 8.9375 C-2.63647631 10.36066991 -4.15503228 10.42674516 -7 10 C-8.8125 8.8125 -8.8125 8.8125 -10 7 C-10.42674516 4.15503228 -10.36066991 2.63647631 -8.9375 0.125 C-5.88430685 -1.64782183 -3.33588292 -0.69235306 0 0 Z " fill="#3E4E60" transform="translate(664,375)"/>
<path d="M0 0 C1.33359073 6.42548263 1.33359073 6.42548263 -0.125 8.9375 C-2.63647631 10.36066991 -4.15503228 10.42674516 -7 10 C-8.8125 8.8125 -8.8125 8.8125 -10 7 C-10.42674516 4.15503228 -10.36066991 2.63647631 -8.9375 0.125 C-5.88430685 -1.64782183 -3.33588292 -0.69235306 0 0 Z " fill="#3E4E60" transform="translate(664,241)"/>
<path d="M0 0 C1.33359073 6.42548263 1.33359073 6.42548263 -0.125 8.9375 C-2.63647631 10.36066991 -4.15503228 10.42674516 -7 10 C-8.8125 8.8125 -8.8125 8.8125 -10 7 C-10.42674516 4.15503228 -10.36066991 2.63647631 -8.9375 0.125 C-5.88430685 -1.64782183 -3.33588292 -0.69235306 0 0 Z " fill="#3E4E60" transform="translate(664,107)"/>
<path d="M0 0 C6.57692308 0.57692308 6.57692308 0.57692308 8 2 C8.45875252 7.27565392 8.45875252 7.27565392 6.8125 9.875 C4.38241919 11.38332602 2.80984248 11.36023622 0 11 C-2 9 -2 9 -2.25 5.5 C-2 2 -2 2 0 0 Z " fill="#333749" transform="translate(662,508)"/>
<path d="M0 0 C1.859375 0.1640625 1.859375 0.1640625 4 1 C5.265625 3.3984375 5.265625 3.3984375 6.25 6.375 C6.58515625 7.35210937 6.9203125 8.32921875 7.265625 9.3359375 C8 12 8 12 8 15 C7.34 15 6.68 15 6 15 C5.67 13.68 5.34 12.36 5 11 C2.69 11 0.38 11 -2 11 C-2 12.32 -2 13.64 -2 15 C-2.99 15 -3.98 15 -5 15 C-4.54705135 13.24859857 -4.08741252 11.49892656 -3.625 9.75 C-3.36976563 8.77546875 -3.11453125 7.8009375 -2.8515625 6.796875 C-2.10401491 4.34162697 -1.22876183 2.24382595 0 0 Z " fill="#2D2D3F" transform="translate(712,504)"/>
<path d="M0 0 C2 2 2 2 2.25 5.5 C2 9 2 9 0 11 C-3 11.3125 -3 11.3125 -6 11 C-8 8 -8 8 -7.75 4.375 C-7.5025 3.26125 -7.255 2.1475 -7 1 C-4.48718205 -0.25640898 -2.78302919 -0.20872719 0 0 Z " fill="#B0AFBB" transform="translate(681,432)"/>
<path d="M0 0 C2 2 2 2 2.25 5.5 C2 9 2 9 0 11 C-3 11.3125 -3 11.3125 -6 11 C-8 8 -8 8 -7.75 4.375 C-7.5025 3.26125 -7.255 2.1475 -7 1 C-4.48718205 -0.25640898 -2.78302919 -0.20872719 0 0 Z " fill="#B0AFBB" transform="translate(844,298)"/>
<path d="M0 0 C2.875 0.6875 2.875 0.6875 3.875 1.6875 C4.125 5.125 4.125 5.125 3.875 8.6875 C0.875 10.6875 0.875 10.6875 -2.25 10.375 C-5.125 9.6875 -5.125 9.6875 -6.125 8.6875 C-6.375 5.25 -6.375 5.25 -6.125 1.6875 C-3.125 -0.3125 -3.125 -0.3125 0 0 Z " fill="#382E3B" transform="translate(712.125,374.3125)"/>
<path d="M0 0 C1.423125 0.4021875 1.423125 0.4021875 2.875 0.8125 C4.67334745 4.4091949 4.22147413 8.34960921 3.3125 12.1875 C0.98639737 14.81700732 -1.76829111 14.5638549 -5.125 14.8125 C-5.125 14.1525 -5.125 13.4925 -5.125 12.8125 C-3.145 12.1525 -1.165 11.4925 0.875 10.8125 C0.875 10.1525 0.875 9.4925 0.875 8.8125 C-2.095 8.3175 -2.095 8.3175 -5.125 7.8125 C-5.8125 5.5 -5.8125 5.5 -6.125 2.8125 C-4.40728577 -0.21876041 -3.48447549 -0.20906853 0 0 Z " fill="#AFB0BD" transform="translate(839.125,428.1875)"/>
<path d="M0 0 C0 0.66 0 1.32 0 2 C-1.65 2.66 -3.3 3.32 -5 4 C-5 4.66 -5 5.32 -5 6 C-2.03 6.495 -2.03 6.495 1 7 C1.125 9.875 1.125 9.875 1 13 C-1 15 -1 15 -3.5 15.3125 C-4.7375 15.1578125 -4.7375 15.1578125 -6 15 C-8.45122505 11.32316242 -8.70497355 8.27282747 -8 4 C-5.38749338 0.26784768 -4.66777264 0 0 0 Z " fill="#B0AFBB" transform="translate(918,428)"/>
<path d="M0 0 C0.99 0 1.98 0 3 0 C4.60546875 2.1875 4.60546875 2.1875 6.1875 5 C6.71730469 5.928125 7.24710938 6.85625 7.79296875 7.8125 C8.19128906 8.534375 8.58960938 9.25625 9 10 C9.33 6.7 9.66 3.4 10 0 C10.66 0 11.32 0 12 0 C12 4.95 12 9.9 12 15 C11.01 15 10.02 15 9 15 C7.39453125 12.8125 7.39453125 12.8125 5.8125 10 C5.28269531 9.071875 4.75289062 8.14375 4.20703125 7.1875 C3.80871094 6.465625 3.41039062 5.74375 3 5 C2.67 8.3 2.34 11.6 2 15 C1.34 15 0.68 15 0 15 C0 10.05 0 5.1 0 0 Z " fill="#A9AABD" transform="translate(661,160)"/>
<path d="M0 0 C0.66 0.66 1.32 1.32 2 2 C2.99 1.34 3.98 0.68 5 0 C6.32 0 7.64 0 9 0 C9 0.66 9 1.32 9 2 C7.68 2 6.36 2 5 2 C6.25541557 4.51083114 7.50063488 4.87125446 10 6 C10 7.32 10 8.64 10 10 C7.29120665 11.35439668 4.99066732 11.06501451 2 11 C1.7525 10.21625 1.505 9.4325 1.25 8.625 C-0.15389099 5.67682892 -1.00675737 5.0975223 -4 4 C-4 3.34 -4 2.68 -4 2 C-2.68 2 -1.36 2 0 2 C0 1.34 0 0.68 0 0 Z " fill="#E4ECEB" transform="translate(772,508)"/>
<path d="M0 0 C0.66 0 1.32 0 2 0 C2.83986084 1.93467942 3.67168027 3.87285129 4.5 5.8125 C4.9640625 6.89144531 5.428125 7.97039063 5.90625 9.08203125 C7 12 7 12 7 15 C6.34 15 5.68 15 5 15 C4.67 14.01 4.34 13.02 4 12 C1.69 11.67 -0.62 11.34 -3 11 C-3.33 12.32 -3.66 13.64 -4 15 C-4.66 15 -5.32 15 -6 15 C-2.9448457 3.84110309 -2.9448457 3.84110309 0 0 Z " fill="#ADAEBC" transform="translate(665,562)"/>
<path d="M0 0 C1.8125 1.25 1.8125 1.25 3 3 C3 4.32 3 5.64 3 7 C0.03 7 -2.94 7 -6 7 C-5.67 7.66 -5.34 8.32 -5 9 C-2.69 9 -0.38 9 2 9 C2 9.66 2 10.32 2 11 C-4.40096618 12.32850242 -4.40096618 12.32850242 -6.9375 10.9375 C-8.47555213 8.13281671 -8.39310741 6.14485925 -8 3 C-5.90534242 -0.30735407 -3.75951639 -0.56392746 0 0 Z " fill="#5B6776" transform="translate(58,43)"/>
<path d="M0 0 C0 0.99 0 1.98 0 3 C-2.97 2.505 -2.97 2.505 -6 2 C-4.77065985 5.68802044 -3.06140622 6.72356973 0 9 C-0.875 13.875 -0.875 13.875 -2 15 C-4.67058851 15.14115161 -7.32432238 15.04247107 -10 15 C-10 14.01 -10 13.02 -10 12 C-8.02 12 -6.04 12 -4 12 C-4 11.34 -4 10.68 -4 10 C-4.804375 9.54625 -5.60875 9.0925 -6.4375 8.625 C-9 7 -9 7 -10 5 C-10 3 -10 3 -9 1.25 C-6.03327697 -0.6042019 -3.41502959 -0.19330356 0 0 Z " fill="#DFE5F7" transform="translate(836,654)"/>
<path d="M0 0 C6.75 -0.125 6.75 -0.125 9 1 C9.825 0.814375 10.65 0.62875 11.5 0.4375 C12.325 0.293125 13.15 0.14875 14 0 C16 2 16 2 16.1953125 4.1640625 C16.17210937 4.97617187 16.14890625 5.78828125 16.125 6.625 C16.10695313 7.44226563 16.08890625 8.25953125 16.0703125 9.1015625 C16.04710937 9.72804688 16.02390625 10.35453125 16 11 C15.34 11 14.68 11 14 11 C13.67 8.36 13.34 5.72 13 3 C12.01 3 11.02 3 10 3 C9.67 5.64 9.34 8.28 9 11 C8.34 11 7.68 11 7 11 C6.67 8.36 6.34 5.72 6 3 C5.01 3 4.02 3 3 3 C2.67 5.64 2.34 8.28 2 11 C1.34 11 0.68 11 0 11 C0 7.37 0 3.74 0 0 Z " fill="#21324E" transform="translate(801,374)"/>
<path d="M0 0 C2.12493141 -0.02693575 4.24995912 -0.04636628 6.375 -0.0625 C7.55835938 -0.07410156 8.74171875 -0.08570313 9.9609375 -0.09765625 C13 0 13 0 15 1 C15 4.3 15 7.6 15 11 C14.34 11 13.68 11 13 11 C13 8.03 13 5.06 13 2 C11.68 2.33 10.36 2.66 9 3 C8.67 5.64 8.34 8.28 8 11 C7.34 11 6.68 11 6 11 C6 8.03 6 5.06 6 2 C5.01 2.33 4.02 2.66 3 3 C2.67 5.64 2.34 8.28 2 11 C1.34 11 0.68 11 0 11 C0 7.37 0 3.74 0 0 Z " fill="#B4AFBB" transform="translate(849,298)"/>
<path d="M0 0 C2.12493141 -0.02693575 4.24995912 -0.04636628 6.375 -0.0625 C7.55835938 -0.07410156 8.74171875 -0.08570313 9.9609375 -0.09765625 C13 0 13 0 15 1 C15 4.3 15 7.6 15 11 C14.34 11 13.68 11 13 11 C13 8.03 13 5.06 13 2 C11.68 2.33 10.36 2.66 9 3 C8.67 5.64 8.34 8.28 8 11 C7.34 11 6.68 11 6 11 C6 8.03 6 5.06 6 2 C5.01 2.33 4.02 2.66 3 3 C2.67 5.64 2.34 8.28 2 11 C1.34 11 0.68 11 0 11 C0 7.37 0 3.74 0 0 Z " fill="#B4AFBB" transform="translate(683,298)"/>
<path d="M0 0 C2.12493141 -0.02693575 4.24995912 -0.04636628 6.375 -0.0625 C7.55835938 -0.07410156 8.74171875 -0.08570313 9.9609375 -0.09765625 C13 0 13 0 15 1 C15 4.3 15 7.6 15 11 C14.34 11 13.68 11 13 11 C13 8.03 13 5.06 13 2 C11.68 2.33 10.36 2.66 9 3 C8.67 5.64 8.34 8.28 8 11 C7.34 11 6.68 11 6 11 C6 8.03 6 5.06 6 2 C5.01 2.33 4.02 2.66 3 3 C2.67 5.64 2.34 8.28 2 11 C1.34 11 0.68 11 0 11 C0 7.37 0 3.74 0 0 Z " fill="#B4AFBB" transform="translate(687,164)"/>
<path d="M0 0 C2.12472576 -0.05386629 4.24983652 -0.09273071 6.375 -0.125 C7.55835938 -0.14820313 8.74171875 -0.17140625 9.9609375 -0.1953125 C13 0 13 0 15 2 C15.1953125 4.1640625 15.1953125 4.1640625 15.125 6.625 C15.10695313 7.44226563 15.08890625 8.25953125 15.0703125 9.1015625 C15.03550781 10.04128906 15.03550781 10.04128906 15 11 C14.34 11 13.68 11 13 11 C13 8.03 13 5.06 13 2 C11.68 2.33 10.36 2.66 9 3 C8.67 5.64 8.34 8.28 8 11 C7.34 11 6.68 11 6 11 C6 8.03 6 5.06 6 2 C5.01 2.33 4.02 2.66 3 3 C2.67 5.64 2.34 8.28 2 11 C1.34 11 0.68 11 0 11 C0 7.37 0 3.74 0 0 Z " fill="#AEAEBD" transform="translate(762,432)"/>
<path d="M0 0 C2.375 -0.125 2.375 -0.125 5 0 C7 2 7 2 7.1953125 4.3828125 C7.17210937 5.28773437 7.14890625 6.19265625 7.125 7.125 C7.10695312 8.03507812 7.08890625 8.94515625 7.0703125 9.8828125 C7.04710937 10.58148438 7.02390625 11.28015625 7 12 C0.84765625 12.09765625 0.84765625 12.09765625 -1 12 C-2 11 -2 11 -2.0625 8.4375 C-2.041875 7.633125 -2.02125 6.82875 -2 6 C0.64738916 4.5393715 1.89448334 4 5 4 C5 3.34 5 2.68 5 2 C3.02 2 1.04 2 -1 2 C-0.67 1.34 -0.34 0.68 0 0 Z " fill="#33333F" transform="translate(163,43)"/>
<path d="M0 0 C1 1 1 1 1.0625 3.5625 C1.041875 4.366875 1.02125 5.17125 1 6 C-1.64 6 -4.28 6 -7 6 C-6.67 6.66 -6.34 7.32 -6 8 C-2.97065509 8.65772428 -2.97065509 8.65772428 0 9 C-0.33 9.66 -0.66 10.32 -1 11 C-3.74086056 11.22223194 -5.43963721 11.34781139 -7.8125 9.875 C-9.55198782 7.12844028 -9.39769128 5.18153026 -9 2 C-6.69566258 -1.96858112 -4.04869963 -1.05618251 0 0 Z " fill="#413537" transform="translate(190,44)"/>
<path d="M0 0 C0.66 0 1.32 0 2 0 C2 3.3 2 6.6 2 10 C2.66 10 3.32 10 4 10 C4 10.66 4 11.32 4 12 C3.34 12 2.68 12 2 12 C2 12.99 2 13.98 2 15 C1.34 15 0.68 15 0 15 C0 14.01 0 13.02 0 12 C-2.31 12 -4.62 12 -7 12 C-5.50328459 7.50985376 -3.16631659 3.52151236 0 0 Z " fill="#AAAABA" transform="translate(893,428)"/>
<path d="M0 0 C1 1 1 1 1.09765625 3.50390625 C1.08605469 4.51324219 1.07445313 5.52257813 1.0625 6.5625 C1.05347656 7.57441406 1.04445313 8.58632813 1.03515625 9.62890625 C1.02355469 10.41136719 1.01195313 11.19382812 1 12 C-1.83967231 12 -4.23735711 11.59732819 -7 11 C-7.33 9.35 -7.66 7.7 -8 6 C-5.69 5.34 -3.38 4.68 -1 4 C-1 3.34 -1 2.68 -1 2 C-2.98 2.33 -4.96 2.66 -7 3 C-7 2.34 -7 1.68 -7 1 C-4.51588385 -0.24205807 -2.74800896 -0.14092354 0 0 Z " fill="#453735" transform="translate(115,43)"/>
<path d="M0 0 C6.75 -0.125 6.75 -0.125 9 1 C9.825 0.835 10.65 0.67 11.5 0.5 C14 0 14 0 16 1 C16 4.63 16 8.26 16 12 C15.67 12 15.34 12 15 12 C14.67 9.03 14.34 6.06 14 3 C12.68 3 11.36 3 10 3 C9.67 5.97 9.34 8.94 9 12 C8.34 12 7.68 12 7 12 C7 8.7 7 5.4 7 2 C5.68 2.33 4.36 2.66 3 3 C2.67 5.97 2.34 8.94 2 12 C1.34 12 0.68 12 0 12 C0 8.04 0 4.08 0 0 Z " fill="#342123" transform="translate(141,43)"/>
<path d="M0 0 C0.66 0 1.32 0 2 0 C2.99 2.31 3.98 4.62 5 7 C5.66 4.69 6.32 2.38 7 0 C7.99 0 8.98 0 10 0 C10.66 2.31 11.32 4.62 12 7 C12.99 4.69 13.98 2.38 15 0 C16.15957207 3.47871621 15.77456651 4.34219645 14.5625 7.6875 C14.27503906 8.49574219 13.98757812 9.30398437 13.69140625 10.13671875 C13.46324219 10.75160156 13.23507813 11.36648437 13 12 C12.01 11.67 11.02 11.34 10 11 C9.67 9.35 9.34 7.7 9 6 C6.89767656 8.8684413 6.89767656 8.8684413 6 12 C5.01 12 4.02 12 3 12 C2.01 8.04 1.02 4.08 0 0 Z " fill="#483C49" transform="translate(62,43)"/>
<path d="M0 0 C2.375 -0.125 2.375 -0.125 5 0 C7 2 7 2 7.1953125 4.1640625 C7.17210937 4.97617187 7.14890625 5.78828125 7.125 6.625 C7.10695313 7.44226563 7.08890625 8.25953125 7.0703125 9.1015625 C7.03550781 10.04128906 7.03550781 10.04128906 7 11 C4.36 11 1.72 11 -1 11 C-1.625 8.625 -1.625 8.625 -2 6 C-1.34 5.34 -0.68 4.68 0 4 C1.32 4 2.64 4 4 4 C4 3.34 4 2.68 4 2 C2.35 2 0.7 2 -1 2 C-0.67 1.34 -0.34 0.68 0 0 Z " fill="#807873" transform="translate(977,658)"/>
<path d="M0 0 C2.375 -0.125 2.375 -0.125 5 0 C7 2 7 2 7.1953125 4.1640625 C7.17210937 4.97617187 7.14890625 5.78828125 7.125 6.625 C7.10695313 7.44226563 7.08890625 8.25953125 7.0703125 9.1015625 C7.03550781 10.04128906 7.03550781 10.04128906 7 11 C4.36 11 1.72 11 -1 11 C-1.625 8.625 -1.625 8.625 -2 6 C-1.34 5.34 -0.68 4.68 0 4 C1.32 4 2.64 4 4 4 C4 3.34 4 2.68 4 2 C2.35 2 0.7 2 -1 2 C-0.67 1.34 -0.34 0.68 0 0 Z " fill="#807873" transform="translate(740,374)"/>
<path d="M0 0 C0.66 0 1.32 0 2 0 C2 1.98 2 3.96 2 6 C4.31 6 6.62 6 9 6 C9 4.02 9 2.04 9 0 C9.66 0 10.32 0 11 0 C11 4.95 11 9.9 11 15 C10.34 15 9.68 15 9 15 C9 12.69 9 10.38 9 8 C6.69 8 4.38 8 2 8 C2 10.31 2 12.62 2 15 C1.34 15 0.68 15 0 15 C0 10.05 0 5.1 0 0 Z " fill="#3B2531" transform="translate(645,504)"/>
<path d="M0 0 C0.99 0 1.98 0 3 0 C3.33 2.64 3.66 5.28 4 8 C4.66 8 5.32 8 6 8 C6.33 5.36 6.66 2.72 7 0 C7.99 0 8.98 0 10 0 C10 3.63 10 7.26 10 11 C3.9453125 11.1953125 3.9453125 11.1953125 2 11 C0 9 0 9 -0.1953125 6.8359375 C-0.17210937 6.02382813 -0.14890625 5.21171875 -0.125 4.375 C-0.10695313 3.55773437 -0.08890625 2.74046875 -0.0703125 1.8984375 C-0.04710937 1.27195312 -0.02390625 0.64546875 0 0 Z " fill="#ECF2FA" transform="translate(838,658)"/>
<path d="M0 0 C2.8125 0.9375 2.8125 0.9375 4.8125 2.9375 C4.9375 6.5625 4.9375 6.5625 4.8125 9.9375 C3.8225 9.9375 2.8325 9.9375 1.8125 9.9375 C1.8125 7.6275 1.8125 5.3175 1.8125 2.9375 C-0.1675 3.5975 -2.1475 4.2575 -4.1875 4.9375 C-4.1875 7.5775 -4.1875 10.2175 -4.1875 12.9375 C-5.1775 12.6075 -6.1675 12.2775 -7.1875 11.9375 C-8 8.75 -8 8.75 -8.1875 4.9375 C-5.67391171 1.28137158 -4.52087196 -0.08864455 0 0 Z " fill="#ECF0F2" transform="translate(722.1875,295.0625)"/>
<path d="M0 0 C2 2 2 2 2 6 C-0.31 6 -2.62 6 -5 6 C-5 6.99 -5 7.98 -5 9 C-3.02 8.67 -1.04 8.34 1 8 C0.67 8.99 0.34 9.98 0 11 C-4.44936709 11.36075949 -4.44936709 11.36075949 -6.8125 9.8125 C-8.42525784 7.35092224 -8.4334014 5.88934264 -8 3 C-5.84871852 -0.2835349 -3.77529378 -0.48401202 0 0 Z " fill="#ACB3C1" transform="translate(712,164)"/>
<path d="M0 0 C2.375 -0.125 2.375 -0.125 5 0 C7 2 7 2 7.1953125 4.1640625 C7.17210937 4.97617188 7.14890625 5.78828125 7.125 6.625 C7.10695313 7.44226563 7.08890625 8.25953125 7.0703125 9.1015625 C7.03550781 10.04128906 7.03550781 10.04128906 7 11 C3.72724974 11 1.153368 10.70074844 -2 10 C-1.67 8.35 -1.34 6.7 -1 5 C0.98 4.67 2.96 4.34 5 4 C5 3.34 5 2.68 5 2 C3.02 2.33 1.04 2.66 -1 3 C-0.67 2.01 -0.34 1.02 0 0 Z " fill="#817F79" transform="translate(724,240)"/>
<path d="M0 0 C0.33 1.65 0.66 3.3 1 5 C-1.31 5 -3.62 5 -6 5 C-5.67 5.66 -5.34 6.32 -5 7 C-2.47266765 7.65555119 -2.47266765 7.65555119 0 8 C-0.33 8.66 -0.66 9.32 -1 10 C-5.44936709 10.36075949 -5.44936709 10.36075949 -7.8125 8.8125 C-9.42525784 6.35092224 -9.4334014 4.88934264 -9 2 C-6.63480795 -1.94198675 -4.0732639 -0.99568673 0 0 Z " fill="#34475B" transform="translate(747,107)"/>
<path d="M0 0 C0.66 1.98 1.32 3.96 2 6 C-0.31 6 -2.62 6 -5 6 C-5 6.99 -5 7.98 -5 9 C-3.02 8.67 -1.04 8.34 1 8 C0.67 8.99 0.34 9.98 0 11 C-4.44936709 11.36075949 -4.44936709 11.36075949 -6.8125 9.8125 C-8.42525784 7.35092224 -8.4334014 5.88934264 -8 3 C-5.82311273 -0.32261741 -3.79605352 -0.30778812 0 0 Z " fill="#ACB1BF" transform="translate(713,566)"/>
<path d="M0 0 C2.375 -0.125 2.375 -0.125 5 0 C7 2 7 2 7.1953125 4.1640625 C7.17210937 4.97617187 7.14890625 5.78828125 7.125 6.625 C7.10695313 7.44226563 7.08890625 8.25953125 7.0703125 9.1015625 C7.03550781 10.04128906 7.03550781 10.04128906 7 11 C4.66705225 11.04241723 2.33297433 11.04092937 0 11 C-1 10 -1 10 -1.0625 7.4375 C-1.041875 6.633125 -1.02125 5.82875 -1 5 C0.98 4.67 2.96 4.34 5 4 C5 3.34 5 2.68 5 2 C3.02 2.33 1.04 2.66 -1 3 C-0.67 2.01 -0.34 1.02 0 0 Z " fill="#B9BBC6" transform="translate(748,298)"/>
<path d="M0 0 C1.66611905 -0.042721 3.33382885 -0.04063832 5 0 C6 1 6 1 6.09765625 3.28515625 C6.08605469 4.20167969 6.07445312 5.11820312 6.0625 6.0625 C6.05347656 6.98160156 6.04445313 7.90070313 6.03515625 8.84765625 C6.02355469 9.55792969 6.01195312 10.26820313 6 11 C3.69 11 1.38 11 -1 11 C-1.625 8.625 -1.625 8.625 -2 6 C-1.34 5.34 -0.68 4.68 0 4 C1.32 4 2.64 4 4 4 C4 3.34 4 2.68 4 2 C2.35 2.33 0.7 2.66 -1 3 C-0.67 2.01 -0.34 1.02 0 0 Z " fill="#BDBBC4" transform="translate(795,298)"/>
<path d="M0 0 C1.66611905 -0.042721 3.33382885 -0.04063832 5 0 C6 1 6 1 6.09765625 3.28515625 C6.08605469 4.20167969 6.07445312 5.11820312 6.0625 6.0625 C6.05347656 6.98160156 6.04445313 7.90070313 6.03515625 8.84765625 C6.02355469 9.55792969 6.01195312 10.26820313 6 11 C3.69 11 1.38 11 -1 11 C-1.625 8.625 -1.625 8.625 -2 6 C-1.34 5.34 -0.68 4.68 0 4 C1.32 4 2.64 4 4 4 C4 3.34 4 2.68 4 2 C2.35 2.33 0.7 2.66 -1 3 C-0.67 2.01 -0.34 1.02 0 0 Z " fill="#BDBBC4" transform="translate(674,298)"/>
<path d="M0 0 C1.1446875 0.3403125 1.1446875 0.3403125 2.3125 0.6875 C2.6425 2.3375 2.9725 3.9875 3.3125 5.6875 C1.0025 5.6875 -1.3075 5.6875 -3.6875 5.6875 C-3.3575 6.3475 -3.0275 7.0075 -2.6875 7.6875 C-0.7075 7.6875 1.2725 7.6875 3.3125 7.6875 C2.9825 8.6775 2.6525 9.6675 2.3125 10.6875 C-0.5625 10.8125 -0.5625 10.8125 -3.6875 10.6875 C-5.6875 8.6875 -5.6875 8.6875 -6 5.75 C-5.6875 2.6875 -5.6875 2.6875 -4.5 0.75 C-2.6875 -0.3125 -2.6875 -0.3125 0 0 Z " fill="#BBBCC6" transform="translate(816.6875,298.3125)"/>
<path d="M0 0 C2.5 0.25 2.5 0.25 4.5 2.25 C4.5 3.57 4.5 4.89 4.5 6.25 C2.19 6.25 -0.12 6.25 -2.5 6.25 C-2.17 6.91 -1.84 7.57 -1.5 8.25 C1.02733235 8.90555119 1.02733235 8.90555119 3.5 9.25 C3.17 9.91 2.84 10.57 2.5 11.25 C0.125 11.375 0.125 11.375 -2.5 11.25 C-4.5 9.25 -4.5 9.25 -4.75 5.75 C-4.46177779 1.71488904 -4.15174939 0.41517494 0 0 Z " fill="#BFC3CF" transform="translate(796.5,431.75)"/>
<path d="M0 0 C2.5 0.25 2.5 0.25 4.5 2.25 C4.5 3.57 4.5 4.89 4.5 6.25 C2.19 6.25 -0.12 6.25 -2.5 6.25 C-2.17 6.91 -1.84 7.57 -1.5 8.25 C1.02733235 8.90555119 1.02733235 8.90555119 3.5 9.25 C3.17 9.91 2.84 10.57 2.5 11.25 C0.125 11.375 0.125 11.375 -2.5 11.25 C-4.5 9.25 -4.5 9.25 -4.75 5.75 C-4.46177779 1.71488904 -4.15174939 0.41517494 0 0 Z " fill="#BFC3CF" transform="translate(705.5,297.75)"/>
<path d="M0 0 C1.66611905 -0.042721 3.33382885 -0.04063832 5 0 C6 1 6 1 6.09765625 3.28515625 C6.08605469 4.20167969 6.07445312 5.11820313 6.0625 6.0625 C6.05347656 6.98160156 6.04445313 7.90070313 6.03515625 8.84765625 C6.02355469 9.55792969 6.01195312 10.26820313 6 11 C3.69 11 1.38 11 -1 11 C-1.625 8.625 -1.625 8.625 -2 6 C-1.34 5.34 -0.68 4.68 0 4 C1.32 4 2.64 4 4 4 C4 3.34 4 2.68 4 2 C2.35 2 0.7 2 -1 2 C-0.67 1.34 -0.34 0.68 0 0 Z " fill="#BABBC5" transform="translate(678,164)"/>
<path d="M0 0 C3.125 0.375 3.125 0.375 6 1 C6.33 2.65 6.66 4.3 7 6 C4.69 6 2.38 6 0 6 C0.33 6.66 0.66 7.32 1 8 C3.52733235 8.65555119 3.52733235 8.65555119 6 9 C5.67 9.66 5.34 10.32 5 11 C2.625 11.125 2.625 11.125 0 11 C-2 9 -2 9 -2.25 5.5 C-2 2 -2 2 0 0 Z " fill="#39363A" transform="translate(693,508)"/>
<path d="M0 0 C3.125 0.375 3.125 0.375 6 1 C6.33 2.65 6.66 4.3 7 6 C4.69 6 2.38 6 0 6 C0.33 6.66 0.66 7.32 1 8 C3.52733235 8.65555119 3.52733235 8.65555119 6 9 C5.67 9.66 5.34 10.32 5 11 C2.625 11.125 2.625 11.125 0 11 C-2 9 -2 9 -2.25 5.5 C-2 2 -2 2 0 0 Z " fill="#39363A" transform="translate(695,240)"/>
<path d="M0 0 C2.97 0.495 2.97 0.495 6 1 C6 4.3 6 7.6 6 11 C3.69 11 1.38 11 -1 11 C-1.625 8.625 -1.625 8.625 -2 6 C-1.34 5.34 -0.68 4.68 0 4 C1.32 4 2.64 4 4 4 C4 3.34 4 2.68 4 2 C2.35 2 0.7 2 -1 2 C-0.67 1.34 -0.34 0.68 0 0 Z " fill="#5B585C" transform="translate(711,106)"/>
<path d="M0 0 C1.1446875 0.3403125 1.1446875 0.3403125 2.3125 0.6875 C2.6425 2.3375 2.9725 3.9875 3.3125 5.6875 C1.0025 5.6875 -1.3075 5.6875 -3.6875 5.6875 C-3.3575 6.3475 -3.0275 7.0075 -2.6875 7.6875 C-0.16016765 8.34305119 -0.16016765 8.34305119 2.3125 8.6875 C1.9825 9.3475 1.6525 10.0075 1.3125 10.6875 C-1.0625 10.8125 -1.0625 10.8125 -3.6875 10.6875 C-5.6875 8.6875 -5.6875 8.6875 -6 5.75 C-5.6875 2.6875 -5.6875 2.6875 -4.5 0.75 C-2.6875 -0.3125 -2.6875 -0.3125 0 0 Z " fill="#433B42" transform="translate(837.6875,374.3125)"/>
<path d="M0 0 C2.64 0 5.28 0 8 0 C9.98362069 2.91708924 9.9876191 4.12380904 9.625 7.75 C9.41875 8.8225 9.2125 9.895 9 11 C8.34 11 7.68 11 7 11 C7 8.03 7 5.06 7 2 C6.01 2.33 5.02 2.66 4 3 C3.67 5.64 3.34 8.28 3 11 C2.01 11 1.02 11 0 11 C0 7.37 0 3.74 0 0 Z " fill="#3C2F42" transform="translate(704,240)"/>
<path d="M0 0 C2.64 0 5.28 0 8 0 C9.98362069 2.91708924 9.9876191 4.12380904 9.625 7.75 C9.41875 8.8225 9.2125 9.895 9 11 C8.34 11 7.68 11 7 11 C7 8.03 7 5.06 7 2 C6.01 2.33 5.02 2.66 4 3 C3.67 5.64 3.34 8.28 3 11 C2.01 11 1.02 11 0 11 C0 7.37 0 3.74 0 0 Z " fill="#3C2F42" transform="translate(720,106)"/>
<path d="M0 0 C0.33 0.99 0.66 1.98 1 3 C1.99 3.33 2.98 3.66 4 4 C3.01 4 2.02 4 1 4 C4.78706732 4 8.26513121 4.4254048 12 5 C12 5.66 12 6.32 12 7 C10.576875 7.3403125 10.576875 7.3403125 9.125 7.6875 C5.80676612 8.69083714 5.80676612 8.69083714 4.625 11.625 C4.41875 12.40875 4.2125 13.1925 4 14 C2.68 13.67 1.36 13.34 0 13 C0 10.03 0 7.06 0 4 C-0.66 3.67 -1.32 3.34 -2 3 C-1.34 3 -0.68 3 0 3 C0 2.01 0 1.02 0 0 Z " fill="#F7F7F6" transform="translate(699,429)"/>
<path d="M0 0 C2.14576637 -0.02685938 4.29162645 -0.04633088 6.4375 -0.0625 C7.63246094 -0.07410156 8.82742188 -0.08570313 10.05859375 -0.09765625 C13 0 13 0 14 1 C14.07205511 2.68608966 14.08386068 4.37500659 14.0625 6.0625 C14.05347656 6.98160156 14.04445313 7.90070313 14.03515625 8.84765625 C14.02355469 9.55792969 14.01195312 10.26820313 14 11 C13.67 11 13.34 11 13 11 C12.67 8.36 12.34 5.72 12 3 C11.01 3 10.02 3 9 3 C8.67 5.64 8.34 8.28 8 11 C7.34 11 6.68 11 6 11 C6 8.03 6 5.06 6 2 C4.68 2.33 3.36 2.66 2 3 C1.67 5.64 1.34 8.28 1 11 C0.67 11 0.34 11 0 11 C0 7.37 0 3.74 0 0 Z " fill="#A9ABB9" transform="translate(776,298)"/>
<path d="M0 0 C0.33 0.66 0.66 1.32 1 2 C-1.31 2.66 -3.62 3.32 -6 4 C-6 6.31 -6 8.62 -6 11 C-3.69 11.66 -1.38 12.32 1 13 C0.67 13.66 0.34 14.32 0 15 C-3.49644963 15.31785906 -5.397402 15.39644605 -8.375 13.4375 C-10.63913895 10.04129157 -10.64269755 7.99900698 -10 4 C-6.88228157 0.52597089 -4.64040092 -0.53033153 0 0 Z " fill="#3D3E4B" transform="translate(972,654)"/>
<path d="M0 0 C1.67542976 0.28604898 3.34385343 0.61781233 5 1 C5 3.97 5 6.94 5 10 C3.34385343 10.38218767 1.67542976 10.71395102 0 11 C-1 10 -1 10 -1.1328125 7.96875 C-1.13023437 7.1540625 -1.12765625 6.339375 -1.125 5.5 C-1.12757813 4.6853125 -1.13015625 3.870625 -1.1328125 3.03125 C-1 1 -1 1 0 0 Z " fill="#F0F4F2" transform="translate(825,430)"/>
<path d="M0 0 C3.375 -0.125 3.375 -0.125 7 0 C9 2 9 2 9.1953125 4.1640625 C9.17210937 4.97617187 9.14890625 5.78828125 9.125 6.625 C9.10695313 7.44226563 9.08890625 8.25953125 9.0703125 9.1015625 C9.03550781 10.04128906 9.03550781 10.04128906 9 11 C8.01 11 7.02 11 6 11 C6 8.03 6 5.06 6 2 C5.01 2.33 4.02 2.66 3 3 C2.67 5.64 2.34 8.28 2 11 C1.34 11 0.68 11 0 11 C0 7.37 0 3.74 0 0 Z " fill="#2D3853" transform="translate(673,508)"/>
<path d="M0 0 C0.99 0 1.98 0 3 0 C3 2.97 3 5.94 3 9 C3.99 8.67 4.98 8.34 6 8 C6.33 5.36 6.66 2.72 7 0 C7.66 0 8.32 0 9 0 C9 3.63 9 7.26 9 11 C5.625 11.125 5.625 11.125 2 11 C0 9 0 9 -0.1953125 6.8359375 C-0.17210937 6.02382813 -0.14890625 5.21171875 -0.125 4.375 C-0.10695313 3.55773437 -0.08890625 2.74046875 -0.0703125 1.8984375 C-0.04710937 1.27195312 -0.02390625 0.64546875 0 0 Z " fill="#4D3A30" transform="translate(667,374)"/>
<path d="M0 0 C0.99 0 1.98 0 3 0 C3 2.97 3 5.94 3 9 C3.99 8.67 4.98 8.34 6 8 C6.33 5.36 6.66 2.72 7 0 C7.66 0 8.32 0 9 0 C9 3.63 9 7.26 9 11 C5.625 11.125 5.625 11.125 2 11 C0 9 0 9 -0.1953125 6.8359375 C-0.17210937 6.02382812 -0.14890625 5.21171875 -0.125 4.375 C-0.10695313 3.55773437 -0.08890625 2.74046875 -0.0703125 1.8984375 C-0.04710937 1.27195313 -0.02390625 0.64546875 0 0 Z " fill="#4D3A30" transform="translate(667,240)"/>
<path d="M0 0 C0.99 0 1.98 0 3 0 C3 2.97 3 5.94 3 9 C3.99 8.67 4.98 8.34 6 8 C6.33 5.36 6.66 2.72 7 0 C7.66 0 8.32 0 9 0 C9 3.63 9 7.26 9 11 C5.625 11.125 5.625 11.125 2 11 C0 9 0 9 -0.1953125 6.8359375 C-0.17210937 6.02382812 -0.14890625 5.21171875 -0.125 4.375 C-0.10695313 3.55773437 -0.08890625 2.74046875 -0.0703125 1.8984375 C-0.04710937 1.27195312 -0.02390625 0.64546875 0 0 Z " fill="#4D3A30" transform="translate(667,106)"/>
<path d="M0 0 C3.125 0.375 3.125 0.375 6 1 C6.33 2.32 6.66 3.64 7 5 C4.69 5 2.38 5 0 5 C0.33 5.99 0.66 6.98 1 8 C2.65 8.33 4.3 8.66 6 9 C5.67 9.66 5.34 10.32 5 11 C2.625 11.125 2.625 11.125 0 11 C-2 9 -2 9 -2.25 5.5 C-2 2 -2 2 0 0 Z " fill="#222E46" transform="translate(757,508)"/>
<path d="M0 0 C0.33 1.32 0.66 2.64 1 4 C-1.31 4 -3.62 4 -6 4 C-5.67 4.99 -5.34 5.98 -5 7 C-3.02 7 -1.04 7 1 7 C0.67 7.99 0.34 8.98 0 10 C-2.31 9.67 -4.62 9.34 -7 9 C-8.33078101 2.58805513 -8.33078101 2.58805513 -6.875 0 C-4.28103624 -1.38344734 -2.74857743 -0.81714464 0 0 Z " fill="#322D3A" transform="translate(1016,659)"/>
<path d="M0 0 C2.31 0.33 4.62 0.66 7 1 C7 3.33333333 7 5.66666667 7 8 C7.31802943 9.66965451 7.64984951 11.33678518 8 13 C4.77208445 15.1519437 3.71599191 15.20086443 0 15 C0 14.01 0 13.02 0 12 C1.65 12 3.3 12 5 12 C5 11.34 5 10.68 5 10 C3.35 9.67 1.7 9.34 0 9 C0 8.34 0 7.68 0 7 C1.32 6.67 2.64 6.34 4 6 C4.33 4.68 4.66 3.36 5 2 C3.35 2 1.7 2 0 2 C0 1.34 0 0.68 0 0 Z " fill="#B1B3C0" transform="translate(877,428)"/>
<path d="M0 0 C0 0.66 0 1.32 0 2 C-1.7015625 2.2165625 -1.7015625 2.2165625 -3.4375 2.4375 C-6.80777201 2.61171478 -6.80777201 2.61171478 -8 4 C-8.16666667 7.5 -8.16666667 7.5 -8 11 C-6.81575674 12.41577477 -6.81575674 12.41577477 -3.4375 12.0625 C-1.7359375 12.0315625 -1.7359375 12.0315625 0 12 C-0.33 12.99 -0.66 13.98 -1 15 C-4.49644963 15.31785906 -6.397402 15.39644605 -9.375 13.4375 C-11.62340519 10.06489221 -11.56783945 7.97487617 -11 4 C-8.07275826 -0.56649711 -5.15004683 -0.39615745 0 0 Z " fill="#ACACB9" transform="translate(671,428)"/>
<path d="M0 0 C2.375 -0.125 2.375 -0.125 5 0 C5.66 0.66 6.32 1.32 7 2 C6.9375 4.875 6.9375 4.875 6 8 C3.4375 10.375 3.4375 10.375 1 12 C3.97 12.495 3.97 12.495 7 13 C7 13.66 7 14.32 7 15 C4.03 15 1.06 15 -2 15 C-0.8504321 10.40172839 0.73131188 9.26868812 4 6 C4.86119134 3.82653432 4.86119134 3.82653432 5 2 C3.02 2 1.04 2 -1 2 C-0.67 1.34 -0.34 0.68 0 0 Z " fill="#AAB0C2" transform="translate(858,428)"/>
<path d="M0 0 C0 0.66 0 1.32 0 2 C-2.31 2.66 -4.62 3.32 -7 4 C-7 6.31 -7 8.62 -7 11 C-4.69 11.66 -2.38 12.32 0 13 C-0.33 13.66 -0.66 14.32 -1 15 C-7.75 14.25 -7.75 14.25 -10 12 C-10.67386609 5.03671706 -10.67386609 5.03671706 -8.375 1.5 C-5.39901677 -0.37956836 -3.45669582 -0.31424507 0 0 Z " fill="#272438" transform="translate(703,370)"/>
<path d="M0 0 C0.99 0.33 1.98 0.66 3 1 C4.1875 3.5625 4.1875 3.5625 5 6 C5.99 4.02 6.98 2.04 8 0 C8.99 0.33 9.98 0.66 11 1 C10.72285156 1.50789063 10.44570313 2.01578125 10.16015625 2.5390625 C7.9665317 6.7077298 6.47586845 10.24131553 6 15 C5.34 15 4.68 15 4 15 C3.71125 13.7625 3.4225 12.525 3.125 11.25 C2.38441916 8.2506476 1.42358162 5.74547884 0 3 C0 2.01 0 1.02 0 0 Z " fill="#3A364B" transform="translate(644,370)"/>
<path d="M0 0 C0.99 0.33 1.98 0.66 3 1 C4.1875 3.5625 4.1875 3.5625 5 6 C5.99 4.02 6.98 2.04 8 0 C8.99 0.33 9.98 0.66 11 1 C10.72285156 1.50789062 10.44570313 2.01578125 10.16015625 2.5390625 C7.9665317 6.7077298 6.47586845 10.24131553 6 15 C5.34 15 4.68 15 4 15 C3.71125 13.7625 3.4225 12.525 3.125 11.25 C2.38441916 8.2506476 1.42358162 5.74547884 0 3 C0 2.01 0 1.02 0 0 Z " fill="#3A364B" transform="translate(644,236)"/>
<path d="M0 0 C0.99 0.33 1.98 0.66 3 1 C4.1875 3.5625 4.1875 3.5625 5 6 C5.99 4.02 6.98 2.04 8 0 C8.99 0.33 9.98 0.66 11 1 C10.72285156 1.50789063 10.44570313 2.01578125 10.16015625 2.5390625 C7.9665317 6.7077298 6.47586845 10.24131553 6 15 C5.34 15 4.68 15 4 15 C3.71125 13.7625 3.4225 12.525 3.125 11.25 C2.38441916 8.2506476 1.42358162 5.74547884 0 3 C0 2.01 0 1.02 0 0 Z " fill="#3A364B" transform="translate(644,102)"/>
<path d="M0 0 C0.99 0 1.98 0 3 0 C3 0.99 3 1.98 3 3 C3.66 3 4.32 3 5 3 C5 3.66 5 4.32 5 5 C4.34 5 3.68 5 3 5 C3 7.31 3 9.62 3 12 C3.66 12 4.32 12 5 12 C5 12.66 5 13.32 5 14 C3.35 13.67 1.7 13.34 0 13 C0 10.36 0 7.72 0 5 C-0.66 5 -1.32 5 -2 5 C-2 4.34 -2 3.68 -2 3 C-1.34 3 -0.68 3 0 3 C0 2.01 0 1.02 0 0 Z " fill="#E9EEF7" transform="translate(888,655)"/>
<path d="M0 0 C3.375 -0.125 3.375 -0.125 7 0 C9 2 9 2 9.1953125 4.1640625 C9.17210937 4.97617187 9.14890625 5.78828125 9.125 6.625 C9.10695313 7.44226563 9.08890625 8.25953125 9.0703125 9.1015625 C9.03550781 10.04128906 9.03550781 10.04128906 9 11 C8.34 11 7.68 11 7 11 C6.67 8.36 6.34 5.72 6 3 C5.01 3 4.02 3 3 3 C2.67 5.64 2.34 8.28 2 11 C1.34 11 0.68 11 0 11 C0 7.37 0 3.74 0 0 Z " fill="#182251" transform="translate(987,658)"/>
<path d="M0 0 C0.99 0 1.98 0 3 0 C3.33 0.99 3.66 1.98 4 3 C6.00016466 4.20882096 6.00016466 4.20882096 8 5 C8 5.66 8 6.32 8 7 C6.35 7 4.7 7 3 7 C2.67 7.66 2.34 8.32 2 9 C1.67 8.34 1.34 7.68 1 7 C-1.31 7 -3.62 7 -6 7 C-6 6.01 -6 5.02 -6 4 C-3.69 4 -1.38 4 1 4 C0.67 2.68 0.34 1.36 0 0 Z " fill="#F4F1F1" transform="translate(714,568)"/>
<path d="M0 0 C3.375 -0.125 3.375 -0.125 7 0 C9 2 9 2 9.1953125 4.1640625 C9.17210937 4.97617187 9.14890625 5.78828125 9.125 6.625 C9.10695313 7.44226563 9.08890625 8.25953125 9.0703125 9.1015625 C9.03550781 10.04128906 9.03550781 10.04128906 9 11 C8.34 11 7.68 11 7 11 C7 8.03 7 5.06 7 2 C5.68 2.33 4.36 2.66 3 3 C2.67 5.64 2.34 8.28 2 11 C1.34 11 0.68 11 0 11 C0 7.37 0 3.74 0 0 Z " fill="#AEAABA" transform="translate(738,432)"/>
<path d="M0 0 C3.375 -0.125 3.375 -0.125 7 0 C9 2 9 2 9.1953125 4.1640625 C9.17210937 4.97617187 9.14890625 5.78828125 9.125 6.625 C9.10695313 7.44226563 9.08890625 8.25953125 9.0703125 9.1015625 C9.03550781 10.04128906 9.03550781 10.04128906 9 11 C8.34 11 7.68 11 7 11 C7 8.03 7 5.06 7 2 C5.68 2.33 4.36 2.66 3 3 C2.67 5.64 2.34 8.28 2 11 C1.34 11 0.68 11 0 11 C0 7.37 0 3.74 0 0 Z " fill="#A9ABBE" transform="translate(686,432)"/>
<path d="M0 0 C0.66 0 1.32 0 2 0 C2 2.97 2 5.94 2 9 C3.32 8.67 4.64 8.34 6 8 C6.33 5.36 6.66 2.72 7 0 C7.66 0 8.32 0 9 0 C9 3.63 9 7.26 9 11 C5.625 11.125 5.625 11.125 2 11 C0 9 0 9 -0.1953125 6.8359375 C-0.17210937 6.02382813 -0.14890625 5.21171875 -0.125 4.375 C-0.10695313 3.55773437 -0.08890625 2.74046875 -0.0703125 1.8984375 C-0.04710937 1.27195312 -0.02390625 0.64546875 0 0 Z " fill="#A9ADC0" transform="translate(750,432)"/>
<path d="M0 0 C3.375 -0.125 3.375 -0.125 7 0 C9 2 9 2 9.1953125 4.1640625 C9.17210937 4.97617187 9.14890625 5.78828125 9.125 6.625 C9.10695313 7.44226563 9.08890625 8.25953125 9.0703125 9.1015625 C9.03550781 10.04128906 9.03550781 10.04128906 9 11 C8.34 11 7.68 11 7 11 C6.67 8.36 6.34 5.72 6 3 C5.01 3 4.02 3 3 3 C2.67 5.64 2.34 8.28 2 11 C1.34 11 0.68 11 0 11 C0 7.37 0 3.74 0 0 Z " fill="#361F2E" transform="translate(719,374)"/>
<path d="M0 0 C0.99 0 1.98 0 3 0 C3 5.28 3 10.56 3 16 C2.01 16 1.02 16 0 16 C0 10.72 0 5.44 0 0 Z " fill="#4E5953" transform="translate(739,235)"/>
<path d="M0 0 C3.3 0 6.6 0 10 0 C8.33333333 5 6.66666667 10 5 15 C4.34 15 3.68 15 3 15 C3.28482368 13.58194169 3.57818144 12.16559621 3.875 10.75 C4.03742187 9.96109375 4.19984375 9.1721875 4.3671875 8.359375 C4.99150075 6.03168856 5.84838542 4.10968048 7 2 C4.69 2 2.38 2 0 2 C0 1.34 0 0.68 0 0 Z " fill="#AFB0BF" transform="translate(929,428)"/>
<path d="M0 0 C1.32 0.33 2.64 0.66 4 1 C4.79953138 4.28696233 5.09658936 5.71023192 4 9 C2.35 9 0.7 9 -1 9 C-1.80967438 6.08517222 -2.21845993 4.53886783 -1.0625 1.6875 C-0.711875 1.130625 -0.36125 0.57375 0 0 Z " fill="#3B3F58" transform="translate(712,504)"/>
<path d="M0 0 C3.375 -0.125 3.375 -0.125 7 0 C9 2 9 2 9.1953125 4.1640625 C9.17210937 4.97617187 9.14890625 5.78828125 9.125 6.625 C9.10695313 7.44226563 9.08890625 8.25953125 9.0703125 9.1015625 C9.03550781 10.04128906 9.03550781 10.04128906 9 11 C8.34 11 7.68 11 7 11 C6.67 8.36 6.34 5.72 6 3 C4.68 3 3.36 3 2 3 C1.67 5.64 1.34 8.28 1 11 C0.67 11 0.34 11 0 11 C0 7.37 0 3.74 0 0 Z " fill="#A5AFC1" transform="translate(661,298)"/>
<path d="M0 0 C0 0.66 0 1.32 0 2 C-1.65 2 -3.3 2 -5 2 C-3.74458443 4.51083114 -2.49936512 4.87125446 0 6 C-0.33 7.65 -0.66 9.3 -1 11 C-2.98 11 -4.96 11 -7 11 C-7 10.34 -7 9.68 -7 9 C-5.35 9 -3.7 9 -2 9 C-3.63412443 7.29159719 -4.86906094 6.06546953 -7 5 C-7 3.68 -7 2.36 -7 1 C-4.53721199 -0.231394 -2.7204945 -0.07159196 0 0 Z " fill="#AFB0BE" transform="translate(773,298)"/>
<path d="M0 0 C0 0.66 0 1.32 0 2 C-1.32 2.33 -2.64 2.66 -4 3 C-4 4.65 -4 6.3 -4 8 C-2.68 8.66 -1.36 9.32 0 10 C-2.3125 10.6875 -2.3125 10.6875 -5 11 C-6.8125 9.875 -6.8125 9.875 -8 8 C-8.4334014 5.11065736 -8.42525784 3.64907776 -6.8125 1.1875 C-4.44017475 -0.36678206 -2.77958655 -0.22537188 0 0 Z " fill="#3F4246" transform="translate(1006,658)"/>
<path d="M0 0 C0 0.66 0 1.32 0 2 C-1.32 2 -2.64 2 -4 2 C-2.74458443 4.51083114 -1.49936512 4.87125446 1 6 C1 7.32 1 8.64 1 10 C-1.31 10.33 -3.62 10.66 -6 11 C-6 10.34 -6 9.68 -6 9 C-4.35 9 -2.7 9 -1 9 C-1 8.34 -1 7.68 -1 7 C-3.475 6.01 -3.475 6.01 -6 5 C-6 3.68 -6 2.36 -6 1 C-4 0 -4 0 0 0 Z " fill="#373743" transform="translate(781,508)"/>
<path d="M0 0 C0 0.66 0 1.32 0 2 C-1.32 2 -2.64 2 -4 2 C-2.74458443 4.51083114 -1.49936512 4.87125446 1 6 C1 7.32 1 8.64 1 10 C-1.31 10.33 -3.62 10.66 -6 11 C-6 10.34 -6 9.68 -6 9 C-4.35 9 -2.7 9 -1 9 C-1 8.34 -1 7.68 -1 7 C-3.475 6.01 -3.475 6.01 -6 5 C-6 3.68 -6 2.36 -6 1 C-4 0 -4 0 0 0 Z " fill="#373743" transform="translate(772,508)"/>
<path d="M0 0 C0.33 0.99 0.66 1.98 1 3 C1.99 3 2.98 3 4 3 C4 3.66 4 4.32 4 5 C3.01 5 2.02 5 1 5 C1 7.31 1 9.62 1 12 C1.99 12 2.98 12 4 12 C4 12.66 4 13.32 4 14 C2.35 13.67 0.7 13.34 -1 13 C-1 10.36 -1 7.72 -1 5 C-1.66 5 -2.32 5 -3 5 C-3 4.34 -3 3.68 -3 3 C-2.34 3 -1.68 3 -1 3 C-0.67 2.01 -0.34 1.02 0 0 Z " fill="#47333A" transform="translate(761,371)"/>
<path d="M0 0 C1.65 0 3.3 0 5 0 C5 0.66 5 1.32 5 2 C3.35 2 1.7 2 0 2 C0 2.66 0 3.32 0 4 C2.475 4.99 2.475 4.99 5 6 C4.67 7.65 4.34 9.3 4 11 C2.02 11 0.04 11 -2 11 C-2 10.34 -2 9.68 -2 9 C-0.35 9 1.3 9 3 9 C1.35 7.35 -0.3 5.7 -2 4 C-1.34 2.68 -0.68 1.36 0 0 Z " fill="#B1B0BA" transform="translate(759,298)"/>
<path d="M0 0 C0.66 0 1.32 0 2 0 C3.4783226 2.95664519 3.06032783 5.74229737 3 9 C1.35 9 -0.3 9 -2 9 C-2.6875 7.3125 -2.6875 7.3125 -3 5 C-1.6875 2.25 -1.6875 2.25 0 0 Z " fill="#BAB2BB" transform="translate(665,562)"/>
<path d="M0 0 C0 0.66 0 1.32 0 2 C-1.65 2.33 -3.3 2.66 -5 3 C-5 4.65 -5 6.3 -5 8 C-3.35 8.33 -1.7 8.66 0 9 C0 9.66 0 10.32 0 11 C-2.875 11.125 -2.875 11.125 -6 11 C-8 9 -8 9 -8.3125 5.5 C-8.209375 4.345 -8.10625 3.19 -8 2 C-4.77208445 -0.1519437 -3.71599191 -0.20086443 0 0 Z " fill="#B0B2C0" transform="translate(740,298)"/>
<path d="M0 0 C0.66 0.33 1.32 0.66 2 1 C1.01 2.485 1.01 2.485 0 4 C2.64 3.67 5.28 3.34 8 3 C8 3.66 8 4.32 8 5 C5.36 5 2.72 5 0 5 C0.33 5.99 0.66 6.98 1 8 C3.31 8 5.62 8 8 8 C8 8.66 8 9.32 8 10 C1.59903382 11.32850242 1.59903382 11.32850242 -0.9375 9.9375 C-2.45334601 7.17331023 -2.32954432 5.09771665 -2 2 C-1.34 1.34 -0.68 0.68 0 0 Z " fill="#3A2925" transform="translate(52,44)"/>
<path d="M0 0 C1.65 0 3.3 0 5 0 C5 0.66 5 1.32 5 2 C3.68 2 2.36 2 1 2 C2.65 3.65 4.3 5.3 6 7 C5.34 8.32 4.68 9.64 4 11 C2.35 11 0.7 11 -1 11 C-1 10.34 -1 9.68 -1 9 C0.65 9 2.3 9 4 9 C4 8.34 4 7.68 4 7 C1.525 6.01 1.525 6.01 -1 5 C-0.67 3.35 -0.34 1.7 0 0 Z " fill="#ABB0BE" transform="translate(727,566)"/>
<path d="M0 0 C1.65 0 3.3 0 5 0 C5 0.66 5 1.32 5 2 C3.68 2 2.36 2 1 2 C2.65 3.65 4.3 5.3 6 7 C5.34 8.32 4.68 9.64 4 11 C2.35 11 0.7 11 -1 11 C-1 10.34 -1 9.68 -1 9 C0.65 9 2.3 9 4 9 C4 8.34 4 7.68 4 7 C1.525 6.01 1.525 6.01 -1 5 C-0.67 3.35 -0.34 1.7 0 0 Z " fill="#ABB0BE" transform="translate(718,566)"/>
<path d="M0 0 C1.2065625 0.0309375 1.2065625 0.0309375 2.4375 0.0625 C2.4375 2.3725 2.4375 4.6825 2.4375 7.0625 C0.77138095 7.105221 -0.89632885 7.10313832 -2.5625 7.0625 C-3.5625 6.0625 -3.5625 6.0625 -3.6875 3.5625 C-3.51717518 0.15600356 -3.41884482 0.08338646 0 0 Z " fill="#F5F7F7" transform="translate(678.5625,433.9375)"/>
<path d="M0 0 C1.2065625 0.0309375 1.2065625 0.0309375 2.4375 0.0625 C2.4375 2.3725 2.4375 4.6825 2.4375 7.0625 C0.77138095 7.105221 -0.89632885 7.10313832 -2.5625 7.0625 C-3.5625 6.0625 -3.5625 6.0625 -3.6875 3.5625 C-3.51717518 0.15600356 -3.41884482 0.08338646 0 0 Z " fill="#F5F7F7" transform="translate(841.5625,299.9375)"/>
<path d="M0 0 C1.32 0.66 2.64 1.32 4 2 C3.125 6.875 3.125 6.875 2 8 C-0.67058851 8.14115161 -3.32432238 8.04247107 -6 8 C-6 7.01 -6 6.02 -6 5 C-4.02 5 -2.04 5 0 5 C-0.2784375 4.0409375 -0.2784375 4.0409375 -0.5625 3.0625 C-0.706875 2.381875 -0.85125 1.70125 -1 1 C-0.67 0.67 -0.34 0.34 0 0 Z " fill="#E6EFFB" transform="translate(832,661)"/>
<path d="M0 0 C1.65 0 3.3 0 5 0 C5 2.31 5 4.62 5 7 C3.35 7 1.7 7 0 7 C-1.125 2.25 -1.125 2.25 0 0 Z " fill="#F0F3F7" transform="translate(676,568)"/>
<path d="M0 0 C0.66 0 1.32 0 2 0 C2 0.99 2 1.98 2 3 C2.66 3 3.32 3 4 3 C4 3.66 4 4.32 4 5 C3.34 5 2.68 5 2 5 C2 7.31 2 9.62 2 12 C2.66 12 3.32 12 4 12 C4 12.66 4 13.32 4 14 C2.68 13.67 1.36 13.34 0 13 C0 10.36 0 7.72 0 5 C-0.66 5 -1.32 5 -2 5 C-2 4.34 -2 3.68 -2 3 C-1.34 3 -0.68 3 0 3 C0 2.01 0 1.02 0 0 Z " fill="#1E1F46" transform="translate(732,371)"/>
<path d="M0 0 C1.67542976 0.28604898 3.34385343 0.61781233 5 1 C5 2.65 5 4.3 5 6 C3.34385343 6.38218767 1.67542976 6.71395102 0 7 C-1 6 -1 6 -1.125 3.5 C-1 1 -1 1 0 0 Z " fill="#F6F8F4" transform="translate(689,568)"/>
<path d="M0 0 C1.67542976 0.28604898 3.34385343 0.61781233 5 1 C5 2.65 5 4.3 5 6 C3.34385343 6.38218767 1.67542976 6.71395102 0 7 C-1 6 -1 6 -1.125 3.5 C-1 1 -1 1 0 0 Z " fill="#F2EFE5" transform="translate(663,510)"/>
<path d="M0 0 C1.67542976 0.28604898 3.34385343 0.61781233 5 1 C5 2.65 5 4.3 5 6 C3.34385343 6.38218767 1.67542976 6.71395102 0 7 C-1 6 -1 6 -1.125 3.5 C-1 1 -1 1 0 0 Z " fill="#F4F8F5" transform="translate(783,434)"/>
<path d="M0 0 C0 0.66 0 1.32 0 2 C-1.65 2.66 -3.3 3.32 -5 4 C-5 5.32 -5 6.64 -5 8 C-3.35 8.33 -1.7 8.66 0 9 C-0.33 9.66 -0.66 10.32 -1 11 C-3.97 10.505 -3.97 10.505 -7 10 C-8.33359073 3.57451737 -8.33359073 3.57451737 -6.875 1.0625 C-4.46420662 -0.30361625 -2.72705554 -0.22111261 0 0 Z " fill="#39313F" transform="translate(757,374)"/>
<path d="M0 0 C1.67542976 0.28604898 3.34385343 0.61781233 5 1 C5 2.65 5 4.3 5 6 C3.34385343 6.38218767 1.67542976 6.71395102 0 7 C-1 6 -1 6 -1.125 3.5 C-1 1 -1 1 0 0 Z " fill="#E3E6E2" transform="translate(823,376)"/>
<path d="M0 0 C1.67542976 0.28604898 3.34385343 0.61781233 5 1 C5 2.65 5 4.3 5 6 C3.34385343 6.38218767 1.67542976 6.71395102 0 7 C-1 6 -1 6 -1.125 3.5 C-1 1 -1 1 0 0 Z " fill="#EAF2F0" transform="translate(709,376)"/>
<path d="M0 0 C0.66 0 1.32 0 2 0 C2 0.99 2 1.98 2 3 C2.99 3.33 3.98 3.66 5 4 C4.01 4 3.02 4 2 4 C2 6.97 2 9.94 2 13 C2.99 13 3.98 13 5 13 C5 13.66 5 14.32 5 15 C1.125 14.125 1.125 14.125 0 13 C-0.07179964 11.48071962 -0.08392007 9.95832518 -0.0625 8.4375 C-0.05347656 7.61121094 -0.04445312 6.78492188 -0.03515625 5.93359375 C-0.02355469 5.29550781 -0.01195312 4.65742187 0 4 C-0.66 3.67 -1.32 3.34 -2 3 C-1.34 3 -0.68 3 0 3 C0 2.01 0 1.02 0 0 Z " fill="#340B38" transform="translate(174,40)"/>
<path d="M0 0 C3 1 3 1 4.1875 2.5625 C5.34939517 6.0481855 5.49350045 9.38814885 5 13 C3.5 16 3.5 16 2 18 C1.34 17.67 0.68 17.34 0 17 C0.33 16.484375 0.66 15.96875 1 15.4375 C3.18914012 10.10147096 2.03097258 5.20436725 0 0 Z " fill="#B2B6CA" transform="translate(963,428)"/>
<path d="M0 0 C0.66 0 1.32 0 2 0 C2 0.99 2 1.98 2 3 C2.66 3.33 3.32 3.66 4 4 C3.34 4 2.68 4 2 4 C2 6.64 2 9.28 2 12 C2.99 12 3.98 12 5 12 C5 12.66 5 13.32 5 14 C3.35 13.67 1.7 13.34 0 13 C0 10.03 0 7.06 0 4 C-0.66 3.67 -1.32 3.34 -2 3 C-1.34 3 -0.68 3 0 3 C0 2.01 0 1.02 0 0 Z " fill="#ABABBB" transform="translate(726,429)"/>
<path d="M0 0 C0.78375 0.04125 1.5675 0.0825 2.375 0.125 C2.375 0.785 2.375 1.445 2.375 2.125 C1.055 2.455 -0.265 2.785 -1.625 3.125 C-1.955 5.105 -2.285 7.085 -2.625 9.125 C-0.975 9.125 0.675 9.125 2.375 9.125 C2.375 9.785 2.375 10.445 2.375 11.125 C0 11.25 0 11.25 -2.625 11.125 C-4.625 9.125 -4.625 9.125 -4.875 5.625 C-4.58138251 1.51435512 -4.25902123 0.20281053 0 0 Z " fill="#ACABB6" transform="translate(831.625,297.875)"/>
<path d="M0 0 C0.66 0 1.32 0 2 0 C2 0.99 2 1.98 2 3 C2.66 3.33 3.32 3.66 4 4 C3.34 4 2.68 4 2 4 C2 6.64 2 9.28 2 12 C2.99 12 3.98 12 5 12 C5 12.66 5 13.32 5 14 C3.35 13.67 1.7 13.34 0 13 C0 10.03 0 7.06 0 4 C-0.66 3.67 -1.32 3.34 -2 3 C-1.34 3 -0.68 3 0 3 C0 2.01 0 1.02 0 0 Z " fill="#ABABBB" transform="translate(805,295)"/>
<path d="M0 0 C0.66 0 1.32 0 2 0 C2 5.61 2 11.22 2 17 C1.01 17 0.02 17 -1 17 C-0.67 11.39 -0.34 5.78 0 0 Z " fill="#093E5D" transform="translate(45,38)"/>
<path d="M0 0 C0.99 0 1.98 0 3 0 C3 3.63 3 7.26 3 11 C1.68 10.67 0.36 10.34 -1 10 C-0.67 6.7 -0.34 3.4 0 0 Z " fill="#E6E9F7" transform="translate(845,658)"/>
<path d="M0 0 C0.66 0.66 1.32 1.32 2 2 C1.625 4.125 1.625 4.125 1 6 C-1.31 6 -3.62 6 -6 6 C-6.33 4.68 -6.66 3.36 -7 2 C-4.69 2 -2.38 2 0 2 C0 1.34 0 0.68 0 0 Z " fill="#CFDBE3" transform="translate(1017,661)"/>
<path d="M0 0 C0 4.95 0 9.9 0 15 C-0.66 15 -1.32 15 -2 15 C-2.33 11.37 -2.66 7.74 -3 4 C-3.66 4 -4.32 4 -5 4 C-5 3.34 -5 2.68 -5 2 C-1.125 0 -1.125 0 0 0 Z " fill="#BBB0B3" transform="translate(851,428)"/>
<path d="M0 0 C0.66 0 1.32 0 2 0 C2 4.95 2 9.9 2 15 C0.68 14.67 -0.64 14.34 -2 14 C-2 13.34 -2 12.68 -2 12 C-1.34 12 -0.68 12 0 12 C0 8.04 0 4.08 0 0 Z " fill="#154C6F" transform="translate(784,370)"/>
<path d="M0 0 C0.66 0 1.32 0 2 0 C2 4.95 2 9.9 2 15 C0.68 14.67 -0.64 14.34 -2 14 C-2 13.34 -2 12.68 -2 12 C-1.34 12 -0.68 12 0 12 C0 8.04 0 4.08 0 0 Z " fill="#183B5F" transform="translate(704,102)"/>
<path d="M0 0 C2.375 -0.125 2.375 -0.125 5 0 C7 2 7 2 7.1953125 4.1640625 C7.17210937 4.97617187 7.14890625 5.78828125 7.125 6.625 C7.10695313 7.44226563 7.08890625 8.25953125 7.0703125 9.1015625 C7.03550781 10.04128906 7.03550781 10.04128906 7 11 C6.34 11 5.68 11 5 11 C4.45627049 7.94152152 4 5.11227195 4 2 C2.35 2 0.7 2 -1 2 C-0.67 1.34 -0.34 0.68 0 0 Z " fill="#2A475F" transform="translate(977,658)"/>
<path d="M0 0 C1.32 0.66 2.64 1.32 4 2 C4 4.97 4 7.94 4 11 C3.01 11 2.02 11 1 11 C0 3.375 0 3.375 0 0 Z " fill="#E9DFF2" transform="translate(876,658)"/>
<path d="M0 0 C2 2 2 2 2.125 5.625 C2.08375 6.73875 2.0425 7.8525 2 9 C0.35 9 -1.3 9 -3 9 C-3 4.72290301 -2.29379749 3.44069624 0 0 Z " fill="#D2CDD2" transform="translate(892,429)"/>
<path d="M0 0 C2.375 -0.125 2.375 -0.125 5 0 C7 2 7 2 7.1953125 4.1640625 C7.17210937 4.97617187 7.14890625 5.78828125 7.125 6.625 C7.10695313 7.44226563 7.08890625 8.25953125 7.0703125 9.1015625 C7.03550781 10.04128906 7.03550781 10.04128906 7 11 C6.34 11 5.68 11 5 11 C4.45627049 7.94152152 4 5.11227195 4 2 C2.35 2 0.7 2 -1 2 C-0.67 1.34 -0.34 0.68 0 0 Z " fill="#2A475F" transform="translate(740,374)"/>
<path d="M0 0 C0.99 0 1.98 0 3 0 C3 3.63 3 7.26 3 11 C2.01 11 1.02 11 0 11 C0 7.37 0 3.74 0 0 Z " fill="#EEE8F2" transform="translate(882,658)"/>
<path d="M0 0 C0.66 0 1.32 0 2 0 C2 5.28 2 10.56 2 16 C1.34 16 0.68 16 0 16 C-1.18224668 12.45325997 -0.89329634 10.02477005 -0.5625 6.3125 C-0.46066406 5.13300781 -0.35882812 3.95351563 -0.25390625 2.73828125 C-0.17011719 1.83464844 -0.08632813 0.93101562 0 0 Z " fill="#A6ACC1" transform="translate(694,561)"/>
<path d="M0 0 C2.375 -0.125 2.375 -0.125 5 0 C7 2 7 2 7.1953125 4.1640625 C7.17210937 4.97617187 7.14890625 5.78828125 7.125 6.625 C7.10695313 7.44226563 7.08890625 8.25953125 7.0703125 9.1015625 C7.03550781 10.04128906 7.03550781 10.04128906 7 11 C6.34 11 5.68 11 5 11 C5 9.02 5 7.04 5 5 C4.34 4.67 3.68 4.34 3 4 C3.66 4 4.32 4 5 4 C5 3.34 5 2.68 5 2 C3.02 2.33 1.04 2.66 -1 3 C-0.67 2.01 -0.34 1.02 0 0 Z " fill="#A8AFBF" transform="translate(706,432)"/>
<path d="M0 0 C1.98 0 3.96 0 6 0 C6 0.66 6 1.32 6 2 C5.01 2.66 4.02 3.32 3 4 C2.26393501 7.56769552 2.26393501 7.56769552 2 11 C1.34 11 0.68 11 0 11 C0 7.37 0 3.74 0 0 Z " fill="#BBB4BA" transform="translate(803,432)"/>
<path d="M0 0 C1.32 0 2.64 0 4 0 C4 2.31 4 4.62 4 7 C2.35 6.67 0.7 6.34 -1 6 C-1.042721 4.33388095 -1.04063832 2.66617115 -1 1 C-0.67 0.67 -0.34 0.34 0 0 Z " fill="#F7F8F4" transform="translate(658,376)"/>
<path d="M0 0 C2.375 -0.125 2.375 -0.125 5 0 C7 2 7 2 7.1953125 4.1640625 C7.17210937 4.97617188 7.14890625 5.78828125 7.125 6.625 C7.10695313 7.44226563 7.08890625 8.25953125 7.0703125 9.1015625 C7.03550781 10.04128906 7.03550781 10.04128906 7 11 C6.34 11 5.68 11 5 11 C3.875 4.25 3.875 4.25 5 2 C3.02 2.33 1.04 2.66 -1 3 C-0.67 2.01 -0.34 1.02 0 0 Z " fill="#2A2C4D" transform="translate(724,240)"/>
<path d="M0 0 C1.32 0 2.64 0 4 0 C4 2.31 4 4.62 4 7 C2.35 6.67 0.7 6.34 -1 6 C-1.042721 4.33388095 -1.04063832 2.66617115 -1 1 C-0.67 0.67 -0.34 0.34 0 0 Z " fill="#F7F8F4" transform="translate(658,242)"/>
<path d="M0 0 C1.32 0 2.64 0 4 0 C4 2.31 4 4.62 4 7 C2.35 6.67 0.7 6.34 -1 6 C-1.042721 4.33388095 -1.04063832 2.66617115 -1 1 C-0.67 0.67 -0.34 0.34 0 0 Z " fill="#F7F8F4" transform="translate(658,108)"/>
<path d="M0 0 C1.134375 0.020625 2.26875 0.04125 3.4375 0.0625 C3.4375 1.3825 3.4375 2.7025 3.4375 4.0625 C1.1275 4.0625 -1.1825 4.0625 -3.5625 4.0625 C-3.8925 4.7225 -4.2225 5.3825 -4.5625 6.0625 C-4.605221 4.39638095 -4.60313832 2.72867115 -4.5625 1.0625 C-3.5625 0.0625 -3.5625 0.0625 0 0 Z " fill="#6B7A8E" transform="translate(696.5625,509.9375)"/>
<path d="M0 0 C1.134375 0.020625 2.26875 0.04125 3.4375 0.0625 C3.4375 1.3825 3.4375 2.7025 3.4375 4.0625 C1.1275 4.0625 -1.1825 4.0625 -3.5625 4.0625 C-3.8925 4.7225 -4.2225 5.3825 -4.5625 6.0625 C-4.605221 4.39638095 -4.60313832 2.72867115 -4.5625 1.0625 C-3.5625 0.0625 -3.5625 0.0625 0 0 Z " fill="#6B7A8E" transform="translate(698.5625,241.9375)"/>
<path d="M0 0 C2.0625 0.4375 2.0625 0.4375 4 1 C4 2.65 4 4.3 4 6 C2.0625 6.5625 2.0625 6.5625 0 7 C-1 6 -1 6 -1.125 3.5 C-1 1 -1 1 0 0 Z " fill="#FAFCF4" transform="translate(738,510)"/>
<path d="M0 0 C2.0625 0.4375 2.0625 0.4375 4 1 C4 2.65 4 4.3 4 6 C2.0625 6.5625 2.0625 6.5625 0 7 C-1 6 -1 6 -1.125 3.5 C-1 1 -1 1 0 0 Z " fill="#F5FCF9" transform="translate(725,510)"/>
<path d="M0 0 C0.66 0 1.32 0 2 0 C3.20272819 2.40545638 3.10071472 3.94996953 3.0625 6.625 C3.05347656 7.44226563 3.04445313 8.25953125 3.03515625 9.1015625 C3.02355469 9.72804687 3.01195312 10.35453125 3 11 C2.01 11 1.02 11 0 11 C0 7.37 0 3.74 0 0 Z " fill="#525347" transform="translate(704,240)"/>
<path d="M0 0 C0.66 0 1.32 0 2 0 C3.20272819 2.40545638 3.10071472 3.94996953 3.0625 6.625 C3.05347656 7.44226563 3.04445313 8.25953125 3.03515625 9.1015625 C3.02355469 9.72804688 3.01195312 10.35453125 3 11 C2.01 11 1.02 11 0 11 C0 7.37 0 3.74 0 0 Z " fill="#525347" transform="translate(720,106)"/>
<path d="M0 0 C1.98 0 3.96 0 6 0 C6 0.66 6 1.32 6 2 C5.01 2.33 4.02 2.66 3 3 C2.67 5.64 2.34 8.28 2 11 C1.34 11 0.68 11 0 11 C0 7.37 0 3.74 0 0 Z " fill="#A9ACBF" transform="translate(699,566)"/>
<path d="M0 0 C1.98 0 3.96 0 6 0 C6 0.66 6 1.32 6 2 C5.01 2.33 4.02 2.66 3 3 C2.67 5.64 2.34 8.28 2 11 C1.34 11 0.68 11 0 11 C0 7.37 0 3.74 0 0 Z " fill="#1C2954" transform="translate(748,508)"/>
<path d="M0 0 C1.98 0 3.96 0 6 0 C6 0.66 6 1.32 6 2 C5.01 2.33 4.02 2.66 3 3 C2.67 5.64 2.34 8.28 2 11 C1.34 11 0.68 11 0 11 C0 7.37 0 3.74 0 0 Z " fill="#1C2954" transform="translate(844,374)"/>
<path d="M0 0 C1.98 0 3.96 0 6 0 C6 0.66 6 1.32 6 2 C5.01 2.33 4.02 2.66 3 3 C2.67 5.64 2.34 8.28 2 11 C1.34 11 0.68 11 0 11 C0 7.37 0 3.74 0 0 Z " fill="#1C2954" transform="translate(680,374)"/>
<path d="M0 0 C1.98 0 3.96 0 6 0 C6 0.66 6 1.32 6 2 C5.01 2.33 4.02 2.66 3 3 C2.67 5.64 2.34 8.28 2 11 C1.34 11 0.68 11 0 11 C0 7.37 0 3.74 0 0 Z " fill="#1C2954" transform="translate(680,240)"/>
<path d="M0 0 C1.98 0 3.96 0 6 0 C6 0.66 6 1.32 6 2 C5.01 2.33 4.02 2.66 3 3 C2.67 5.64 2.34 8.28 2 11 C1.34 11 0.68 11 0 11 C0 7.37 0 3.74 0 0 Z " fill="#1C2954" transform="translate(680,106)"/>
<path d="M0 0 C2.97 0.495 2.97 0.495 6 1 C5.01 1.66 4.02 2.32 3 3 C2.42006301 5.19454681 2.42006301 5.19454681 2.3125 7.625 C2.21388672 8.85089844 2.21388672 8.85089844 2.11328125 10.1015625 C2.05720703 11.04128906 2.05720703 11.04128906 2 12 C1.34 12 0.68 12 0 12 C0 8.04 0 4.08 0 0 Z " fill="#38425A" transform="translate(141,43)"/>
<path d="M0 0 C0.99 0.33 1.98 0.66 3 1 C3 2.65 3 4.3 3 6 C1.68 6.33 0.36 6.66 -1 7 C-1.625 4.625 -1.625 4.625 -2 2 C-1.34 1.34 -0.68 0.68 0 0 Z " fill="#3557DB" transform="translate(855,660)"/>
<path d="M0 0 C1.32 0.66 2.64 1.32 4 2 C2.68 2.33 1.36 2.66 0 3 C-0.33 4.65 -0.66 6.3 -1 8 C1.31 8.33 3.62 8.66 6 9 C5.67 9.66 5.34 10.32 5 11 C2.625 11.125 2.625 11.125 0 11 C-2 9 -2 9 -2.25 5.5 C-2 2 -2 2 0 0 Z " fill="#B4B0B9" transform="translate(794,432)"/>
<path d="M0 0 C0.66 0 1.32 0 2 0 C2 1.65 2 3.3 2 5 C4.91652174 5.16681109 4.91652174 5.16681109 8 5 C8.66 4.34 9.32 3.68 10 3 C9.125 6.875 9.125 6.875 8 8 C5.19048514 8.29573841 3.58371024 8.38243085 1.1875 6.8125 C-0.36678206 4.44017475 -0.22537188 2.77958655 0 0 Z " fill="#443A39" transform="translate(654,377)"/>
<path d="M0 0 C1.32 0.66 2.64 1.32 4 2 C2.68 2.33 1.36 2.66 0 3 C-0.33 4.65 -0.66 6.3 -1 8 C1.31 8.33 3.62 8.66 6 9 C5.67 9.66 5.34 10.32 5 11 C2.625 11.125 2.625 11.125 0 11 C-2 9 -2 9 -2.25 5.5 C-2 2 -2 2 0 0 Z " fill="#B4B0B9" transform="translate(703,298)"/>
<path d="M0 0 C0.66 0 1.32 0 2 0 C2 1.65 2 3.3 2 5 C4.91652174 5.16681109 4.91652174 5.16681109 8 5 C8.66 4.34 9.32 3.68 10 3 C9.125 6.875 9.125 6.875 8 8 C5.19048514 8.29573841 3.58371024 8.38243085 1.1875 6.8125 C-0.36678206 4.44017475 -0.22537188 2.77958655 0 0 Z " fill="#443A39" transform="translate(654,243)"/>
<path d="M0 0 C0.66 0 1.32 0 2 0 C2 1.65 2 3.3 2 5 C4.91652174 5.16681109 4.91652174 5.16681109 8 5 C8.66 4.34 9.32 3.68 10 3 C9.125 6.875 9.125 6.875 8 8 C5.19048514 8.29573841 3.58371024 8.38243085 1.1875 6.8125 C-0.36678206 4.44017475 -0.22537188 2.77958655 0 0 Z " fill="#443A39" transform="translate(654,109)"/>
<path d="M0 0 C-0.33 0.99 -0.66 1.98 -1 3 C-2.98 3 -4.96 3 -7 3 C-7.66 4.32 -8.32 5.64 -9 7 C-9.22417836 4.2351335 -9.32233508 2.53722513 -7.875 0.125 C-5.07848948 -1.55290631 -3.06309468 -0.74875648 0 0 Z " fill="#8D8072" transform="translate(747,107)"/>
<path d="M0 0 C0.99 0.33 1.98 0.66 3 1 C2.67 1.33 2.34 1.66 2 2 C1.66656449 4.45792029 1.66656449 4.45792029 2 7 C2.99 7.66 3.98 8.32 5 9 C3.125 9.625 3.125 9.625 1 10 C-1 8 -1 8 -1.1875 4.4375 C-1 1 -1 1 0 0 Z " fill="#232D46" transform="translate(723,509)"/>
<path d="M0 0 C0.99 0 1.98 0 3 0 C3 2.97 3 5.94 3 9 C2.01 9 1.02 9 0 9 C0 6.03 0 3.06 0 0 Z " fill="#47575C" transform="translate(667,374)"/>
<path d="M0 0 C0.99 0.33 1.98 0.66 3 1 C2.67 2.65 2.34 4.3 2 6 C0.68 6 -0.64 6 -2 6 C-1.125 1.125 -1.125 1.125 0 0 Z " fill="#EBEBED" transform="translate(720,299)"/>
<path d="M0 0 C3.69230769 0.69230769 3.69230769 0.69230769 5 2 C5.07179964 3.51928038 5.08392007 5.04167482 5.0625 6.5625 C5.05347656 7.38878906 5.04445313 8.21507812 5.03515625 9.06640625 C5.01775391 10.02353516 5.01775391 10.02353516 5 11 C4.34 11 3.68 11 3 11 C2.83723958 8.98177083 2.67447917 6.96354167 2.51171875 4.9453125 C2.12606964 2.60480784 2.12606964 2.60480784 -1 1 C-0.67 0.67 -0.34 0.34 0 0 Z " fill="#302141" transform="translate(715,240)"/>
<path d="M0 0 C0.99 0 1.98 0 3 0 C3 2.97 3 5.94 3 9 C2.01 9 1.02 9 0 9 C0 6.03 0 3.06 0 0 Z " fill="#47575C" transform="translate(667,240)"/>
<path d="M0 0 C3.69230769 0.69230769 3.69230769 0.69230769 5 2 C5.07179964 3.51928038 5.08392007 5.04167482 5.0625 6.5625 C5.05347656 7.38878906 5.04445313 8.21507813 5.03515625 9.06640625 C5.01775391 10.02353516 5.01775391 10.02353516 5 11 C4.34 11 3.68 11 3 11 C2.83723958 8.98177083 2.67447917 6.96354167 2.51171875 4.9453125 C2.12606964 2.60480784 2.12606964 2.60480784 -1 1 C-0.67 0.67 -0.34 0.34 0 0 Z " fill="#302141" transform="translate(731,106)"/>
<path d="M0 0 C0.99 0 1.98 0 3 0 C3 2.97 3 5.94 3 9 C2.01 9 1.02 9 0 9 C0 6.03 0 3.06 0 0 Z " fill="#47575C" transform="translate(667,106)"/>
<path d="M0 0 C1.65 0.33 3.3 0.66 5 1 C4.67 2.32 4.34 3.64 4 5 C2.35 4.67 0.7 4.34 -1 4 C-0.67 2.68 -0.34 1.36 0 0 Z " fill="#F2F3F2" transform="translate(955,430)"/>
<path d="M0 0 C1.65 0.33 3.3 0.66 5 1 C4.67 2.32 4.34 3.64 4 5 C2.35 4.67 0.7 4.34 -1 4 C-0.67 2.68 -0.34 1.36 0 0 Z " fill="#F0F4F4" transform="translate(836,430)"/>
<path d="M0 0 C1.65 0 3.3 0 5 0 C5 1.65 5 3.3 5 5 C3.35 5 1.7 5 0 5 C0 3.35 0 1.7 0 0 Z " fill="#F4F5F6" transform="translate(943,436)"/>
<path d="M0 0 C4.75 0.75 4.75 0.75 7 3 C7.25 6.5 7.25 6.5 7 10 C6.34 10.66 5.68 11.32 5 12 C4.97421875 11.38511719 4.9484375 10.77023437 4.921875 10.13671875 C4.7185352 5.00745409 4.7185352 5.00745409 1.9375 0.9375 C1.298125 0.628125 0.65875 0.31875 0 0 Z " fill="#A7B0C4" transform="translate(955,428)"/>
<path d="M0 0 C0.33 0 0.66 0 1 0 C1 3.96 1 7.92 1 12 C0.01 12.33 -0.98 12.66 -2 13 C-3.0625 11.1875 -3.0625 11.1875 -4 9 C-3.67 8.01 -3.34 7.02 -3 6 C-2.01 7.485 -2.01 7.485 -1 9 C-0.67 6.03 -0.34 3.06 0 0 Z " fill="#7A623F" transform="translate(783,370)"/>
<path d="M0 0 C2.475 0.99 2.475 0.99 5 2 C5 2.66 5 3.32 5 4 C2.69 4 0.38 4 -2 4 C-2.33 5.32 -2.66 6.64 -3 8 C-3.36923077 3.44615385 -3.36923077 3.44615385 -1.5 1.1875 C-1.005 0.795625 -0.51 0.40375 0 0 Z " fill="#DBD3D4" transform="translate(708,566)"/>
<path d="M0 0 C2.97 0.495 2.97 0.495 6 1 C5.67 1.99 5.34 2.98 5 4 C2.69 4 0.38 4 -2 4 C-1.34 2.68 -0.68 1.36 0 0 Z " fill="#84817D" transform="translate(757,508)"/>
<path d="M0 0 C1.65 0 3.3 0 5 0 C5 1.65 5 3.3 5 5 C3.35 4.67 1.7 4.34 0 4 C0 2.68 0 1.36 0 0 Z " fill="#F3F7F7" transform="translate(912,436)"/>
<path d="M0 0 C0.33 0.99 0.66 1.98 1 3 C1.99 3.33 2.98 3.66 4 4 C3.01 4 2.02 4 1 4 C1 6.64 1 9.28 1 12 C1.99 12 2.98 12 4 12 C4 12.66 4 13.32 4 14 C2.68 13.67 1.36 13.34 0 13 C0 10.03 0 7.06 0 4 C-0.66 3.67 -1.32 3.34 -2 3 C-1.34 3 -0.68 3 0 3 C0 2.01 0 1.02 0 0 Z " fill="#A1A6B3" transform="translate(699,429)"/>
<path d="M0 0 C0 0.99 0 1.98 0 3 C-1.98 3 -3.96 3 -6 3 C-6.33 2.01 -6.66 1.02 -7 0 C-4.3333581 -1.33332095 -2.83319697 -0.67102033 0 0 Z " fill="#787E86" transform="translate(840,375)"/>
<path d="M0 0 C2.31 0.33 4.62 0.66 7 1 C7 1.66 7 2.32 7 3 C6.05125 3.268125 5.1025 3.53625 4.125 3.8125 C0.74732727 4.74986588 0.74732727 4.74986588 -1 8 C-1.125 2.25 -1.125 2.25 0 0 Z " fill="#F8F4E8" transform="translate(722,241)"/>
<path d="M0 0 C2.475 0.99 2.475 0.99 5 2 C5 2.66 5 3.32 5 4 C2.69 4 0.38 4 -2 4 C-2.33 5.32 -2.66 6.64 -3 8 C-3.36923077 3.44615385 -3.36923077 3.44615385 -1.5 1.1875 C-1.005 0.795625 -0.51 0.40375 0 0 Z " fill="#DBD3D4" transform="translate(707,164)"/>
<path d="M0 0 C0.66 0 1.32 0 2 0 C3.35015859 4.05047576 2.62084998 6.7920168 2 11 C1.34 11 0.68 11 0 11 C0 7.37 0 3.74 0 0 Z " fill="#4B1828" transform="translate(801,374)"/>
<path d="M0 0 C0.66 0 1.32 0 2 0 C2 3.63 2 7.26 2 11 C1.34 11 0.68 11 0 11 C-1.35015859 6.94952424 -0.62084998 4.2079832 0 0 Z " fill="#141855" transform="translate(796,374)"/>
<path d="M0 0 C1.65 0 3.3 0 5 0 C4.67 1.32 4.34 2.64 4 4 C2.35 4 0.7 4 -1 4 C-0.67 2.68 -0.34 1.36 0 0 Z " fill="#E3EBEA" transform="translate(163,49)"/>
<path d="M0 0 C4.875 0.875 4.875 0.875 6 2 C6.04080783 3.99958364 6.04254356 6.00045254 6 8 C5.34 8 4.68 8 4 8 C3.67 6.35 3.34 4.7 3 3 C2.01 2.67 1.02 2.34 0 2 C0 1.34 0 0.68 0 0 Z " fill="#1D2E53" transform="translate(664,508)"/>
<path d="M0 0 C0.33 0.66 0.66 1.32 1 2 C3.31 2 5.62 2 8 2 C8 2.66 8 3.32 8 4 C5.03 4 2.06 4 -1 4 C-0.67 2.68 -0.34 1.36 0 0 Z " fill="#ACACB7" transform="translate(857,439)"/>
<path d="M0 0 C0.33 0 0.66 0 1 0 C1.1875 3.375 1.1875 3.375 1 7 C0.01 7.66 -0.98 8.32 -2 9 C-3 6 -3 6 -2.125 3.9375 C-1.75375 3.298125 -1.3825 2.65875 -1 2 C-0.67 1.34 -0.34 0.68 0 0 Z " fill="#E1DFF3" transform="translate(860,660)"/>
<path d="M0 0 C1.65 0.33 3.3 0.66 5 1 C5 1.99 5 2.98 5 4 C3.02 4 1.04 4 -1 4 C-0.67 2.68 -0.34 1.36 0 0 Z " fill="#92908F" transform="translate(1011,658)"/>
<path d="M0 0 C1.66611905 -0.042721 3.33382885 -0.04063832 5 0 C6 1 6 1 6.0625 4.0625 C6.041875 5.031875 6.02125 6.00125 6 7 C5.566875 6.360625 5.13375 5.72125 4.6875 5.0625 C3.08760823 2.73253997 3.08760823 2.73253997 0 2 C0 1.34 0 0.68 0 0 Z " fill="#EFF5FC" transform="translate(854,658)"/>
<path d="M0 0 C0.7425 0.0825 1.485 0.165 2.25 0.25 C2.58 0.91 2.91 1.57 3.25 2.25 C-0.05 2.91 -3.35 3.57 -6.75 4.25 C-3.42692308 0.31153846 -3.42692308 0.31153846 0 0 Z " fill="#282936" transform="translate(969.75,653.75)"/>
<path d="M0 0 C2.625 0.375 2.625 0.375 5 1 C4.67 1.66 4.34 2.32 4 3 C3.01 3 2.02 3 1 3 C0.67 4.65 0.34 6.3 0 8 C-0.33 8 -0.66 8 -1 8 C-1.625 5.125 -1.625 5.125 -2 2 C-1.34 1.34 -0.68 0.68 0 0 Z " fill="#2F4960" transform="translate(737,508)"/>
<path d="M0 0 C0.66 0.33 1.32 0.66 2 1 C2 3.31 2 5.62 2 8 C1.01 8 0.02 8 -1 8 C-0.67 5.36 -0.34 2.72 0 0 Z " fill="#F2F8F5" transform="translate(725,297)"/>
<path d="M0 0 C1.32 0 2.64 0 4 0 C4 1.32 4 2.64 4 4 C2.35 4 0.7 4 -1 4 C-0.67 2.68 -0.34 1.36 0 0 Z " fill="#ECF4F5" transform="translate(110,49)"/>
<path d="M0 0 C1.65 0 3.3 0 5 0 C5.33 0.99 5.66 1.98 6 3 C3.69 3 1.38 3 -1 3 C-0.67 2.01 -0.34 1.02 0 0 Z " fill="#E7E9E5" transform="translate(53,45)"/>
<path d="M0 0 C1.74627478 2.61941217 2.38722388 4.03824877 3 7 C1.35 7 -0.3 7 -2 7 C-1.34 4.69 -0.68 2.38 0 0 Z " fill="#E9F1F4" transform="translate(665,564)"/>
<path d="M0 0 C0.66 0.33 1.32 0.66 2 1 C2.625 3.5625 2.625 3.5625 3 6 C1.35 6 -0.3 6 -2 6 C-1.34 4.02 -0.68 2.04 0 0 Z " fill="#DEDFCF" transform="translate(713,507)"/>
<path d="M0 0 C1.65 0 3.3 0 5 0 C4.67 1.32 4.34 2.64 4 4 C2.68 3.67 1.36 3.34 0 3 C0 2.01 0 1.02 0 0 Z " fill="#EAEAED" transform="translate(943,430)"/>
<path d="M0 0 C4.875 0.875 4.875 0.875 6 2 C6.04080783 3.99958364 6.04254356 6.00045254 6 8 C5.67 8 5.34 8 5 8 C5 6.35 5 4.7 5 3 C2.03 2.505 2.03 2.505 -1 2 C-0.67 1.34 -0.34 0.68 0 0 Z " fill="#293A5F" transform="translate(824,374)"/>
<path d="M0 0 C0.66 0 1.32 0 2 0 C2 0.99 2 1.98 2 3 C2.66 3 3.32 3 4 3 C4 3.66 4 4.32 4 5 C2.02 5 0.04 5 -2 5 C-2 4.34 -2 3.68 -2 3 C-1.34 3 -0.68 3 0 3 C0 2.01 0 1.02 0 0 Z " fill="#373045" transform="translate(732,371)"/>
<path d="M0 0 C1.3921875 0.0928125 1.3921875 0.0928125 2.8125 0.1875 C2.8125 0.8475 2.8125 1.5075 2.8125 2.1875 C-1.6425 2.6825 -1.6425 2.6825 -6.1875 3.1875 C-3.1875 0.1875 -3.1875 0.1875 0 0 Z " fill="#36373B" transform="translate(700.1875,369.8125)"/>
<path d="M0 0 C1.2065625 0.0309375 1.2065625 0.0309375 2.4375 0.0625 C2.4375 0.7225 2.4375 1.3825 2.4375 2.0625 C1.1175 2.3925 -0.2025 2.7225 -1.5625 3.0625 C-1.8925 4.7125 -2.2225 6.3625 -2.5625 8.0625 C-2.8925 8.0625 -3.2225 8.0625 -3.5625 8.0625 C-3.60491723 5.72955225 -3.60342937 3.39547433 -3.5625 1.0625 C-2.5625 0.0625 -2.5625 0.0625 0 0 Z " fill="#B1BACB" transform="translate(831.5625,297.9375)"/>
<path d="M0 0 C1.65 0 3.3 0 5 0 C5 0.99 5 1.98 5 3 C3.02 3 1.04 3 -1 3 C-0.67 2.01 -0.34 1.02 0 0 Z " fill="#EDF5F6" transform="translate(184,45)"/>
</svg>
