<?xml version="1.0" encoding="UTF-8"?>
<svg version="1.1" xmlns="http://www.w3.org/2000/svg" width="512" height="512">
<path d="M0 0 C149.82 0 299.64 0 454 0 C454 6.57113913 453.9802643 12.84881764 453.3808918 19.34172821 C453.31395605 20.10991312 453.24702029 20.87809803 453.17805618 21.66956127 C452.95491186 24.21694242 452.72492599 26.76365626 452.49490356 29.3104248 C452.33092849 31.16565484 452.16737467 33.02092216 452.00420368 34.87622309 C451.55638054 39.95387912 451.10251057 45.03097892 450.64759851 50.10800409 C450.15737381 55.59091059 449.67273936 61.07431166 449.18734741 66.55764771 C448.23642775 77.28916723 447.28014823 88.02020258 446.32178129 98.75105935 C445.54325267 107.46870036 444.76635023 116.18648478 443.99059677 124.90437317 C442.14909099 145.59778499 440.30654795 166.29110313 438.45756721 186.98384857 C438.39850324 187.64486814 438.33943927 188.3058877 438.27858548 188.98693817 C437.97923286 192.33711046 437.67986285 195.6872812 437.38048734 199.03745145 C437.32103215 199.70278909 437.26157695 200.36812673 437.20032009 201.05362611 C437.08008751 202.39909518 436.9598538 203.74456414 436.83961896 205.090033 C434.96663142 226.04998998 433.10089329 247.01058147 431.24072266 267.97167969 C429.15024846 291.52782467 427.05401272 315.08344897 424.9494952 338.63834429 C423.83543022 351.10896256 422.72398453 363.57980149 421.61929703 376.05125427 C420.6794713 386.66082859 419.733734 397.26985506 418.78021111 407.8782075 C418.29360169 413.29384365 417.80981185 418.70969378 417.33342743 424.12623978 C416.89781721 429.07837057 416.45437346 434.02973323 416.00450979 438.98058897 C415.84265207 440.7774761 415.68373485 442.57463085 415.52795936 444.37205547 C415.31678112 446.80382538 415.09517297 449.23441927 414.87079048 451.66500092 C414.7824108 452.72658301 414.7824108 452.72658301 414.69224566 453.8096112 C414.35807053 457.30151156 413.99319104 459.01021345 412 462 C409.33500692 462.96654 406.76367019 463.75245476 404.03125 464.4765625 C402.73923172 464.83398277 402.73923172 464.83398277 401.42111206 465.19862366 C398.45018271 466.01789307 395.47510879 466.82105079 392.5 467.625 C390.34163086 468.2173091 388.18360272 468.8108619 386.02587891 469.40551758 C381.69434984 470.59830287 377.36189547 471.78760187 373.02835274 472.97305012 C362.02845495 475.98340188 351.04131947 479.03930259 340.0546875 482.09765625 C338.0975578 482.64232541 336.1404248 483.18698272 334.18328857 483.73162842 C331.21167046 484.5586207 328.24005845 485.38563488 325.26846695 486.21272278 C318.50943961 488.09387977 311.75005629 489.97375102 304.99023438 491.85205078 C304.06347271 492.10961403 303.13671104 492.36717728 302.18186569 492.63254547 C297.57085765 493.91354494 292.959199 495.19212327 288.34625244 496.46612549 C280.06330698 498.75477552 271.78430244 501.05386429 263.52178764 503.41539669 C259.85997855 504.46041256 256.19517931 505.49468708 252.52995682 506.52765846 C250.81283743 507.01463691 249.09713433 507.506643 247.38303757 508.00415611 C231.36587875 512.6503209 220.18732234 512.23879267 204.27734375 507.62890625 C202.61010265 507.15751521 200.94248341 506.68745986 199.27452087 506.21862793 C195.69599095 505.20994184 192.12011297 504.19250959 188.54608154 503.16799927 C182.88184154 501.54446235 177.21224278 499.9402675 171.54150391 498.33959961 C165.57969623 496.65591341 159.61822271 494.97109872 153.65856934 493.27980042 C132.75905672 487.34992095 111.82795203 481.53506762 90.89309692 475.73141479 C84.92670533 474.07724085 78.96121962 472.41981646 72.99584961 470.76196289 C70.22686951 469.99269485 67.45786544 469.22351317 64.68884468 468.45439148 C62.94999373 467.97136089 61.21117646 467.48820907 59.47239494 467.00492859 C57.09876139 466.34530949 54.72494468 465.6863538 52.35107422 465.02758789 C51.65880706 464.83506722 50.9665399 464.64254656 50.25329494 464.44419193 C46.44857699 463.38909415 46.44857699 463.38909415 42.60305786 462.49827576 C42.07404877 462.33384476 41.54503967 462.16941376 41 462 C39.53374276 459.06748552 39.53096051 455.99637589 39.25225735 452.77243137 C39.18356856 452.01533946 39.11487976 451.25824755 39.04410949 450.47821346 C38.81258214 447.91505403 38.58692366 445.35141077 38.3611908 442.78773499 C38.19568154 440.94178209 38.02981695 439.09586103 37.86362559 437.24996942 C37.4061298 432.15674325 36.95376627 427.06307204 36.50221479 421.96931589 C36.01502683 416.48348445 35.52316852 410.99807155 35.03190613 405.51260376 C34.06934124 394.75580111 33.11123329 383.99860588 32.15472763 373.24126292 C31.37715024 364.49700093 30.59804589 355.75287626 29.81784248 347.00884819 C29.70696352 345.76615793 29.59608456 344.52346766 29.48184564 343.24312012 C29.25660979 340.71881299 29.03137132 338.1945061 28.80613024 335.67019945 C27.29262583 318.70654337 25.78063645 301.74275278 24.27181149 284.77867985 C24.21276309 284.11478503 24.1537147 283.45089021 24.09287696 282.76687736 C23.61334539 277.37527254 23.1338618 271.98366345 22.65438097 266.59205412 C20.78561924 245.57879832 18.91219073 224.56596338 17.03491211 203.5534668 C14.9263859 179.9524566 12.82107016 156.35116273 10.72064787 132.74942964 C10.49655102 130.23145053 10.272449 127.71347188 10.04834175 125.1954937 C9.93807233 123.956546 9.82780291 122.7175983 9.71419198 121.44110673 C8.93706635 112.71219544 8.15762721 103.98349252 7.37727165 95.25486946 C6.42565099 84.60999655 5.47746956 73.96482404 4.53369515 63.3192525 C4.05209361 57.88791441 3.56894113 52.45672632 3.08155823 47.0259037 C2.6351544 42.05121988 2.19326473 37.07615616 1.75492472 32.10075551 C1.59581413 30.30371092 1.43507456 28.50680964 1.27251422 26.71007384 C1.05113465 24.26047072 0.83580733 21.81040438 0.62190151 19.36013889 C0.55801354 18.66925664 0.49412557 17.97837438 0.4283016 17.26655629 C-0.06881221 11.45058002 0 5.90890715 0 0 Z " fill="#1572B6" transform="translate(29,0)"/>
<path d="M0 0 C96.36 0 192.72 0 292 0 C291.31543826 11.63754955 290.5640905 23.19065153 289.43530273 34.78027344 C289.2677757 36.53443826 289.10815288 38.28937314 288.95581055 40.04492188 C288.73157132 42.62308105 288.4837616 45.19799085 288.23046875 47.7734375 C288.16675583 48.55770111 288.10304291 49.34196472 288.03739929 50.1499939 C287.46465207 55.57954563 287.46465207 55.57954563 285.23429871 57.5977478 C283.01291009 58.99189759 280.86074141 60.06715512 278.44580078 61.08691406 C277.08298729 61.66722633 277.08298729 61.66722633 275.69264221 62.25926208 C274.208964 62.88116173 274.208964 62.88116173 272.6953125 63.515625 C271.648629 63.95959122 270.6019455 64.40355743 269.52354431 64.86097717 C266.05947024 66.32901949 262.59222499 67.78941702 259.125 69.25 C256.70474813 70.27439654 254.28474838 71.29938894 251.86499023 72.32495117 C247.4514458 74.1952021 243.0371637 76.0636907 238.62188625 77.92984676 C226.90677099 82.88152979 215.20418094 87.86250549 203.50311279 92.84729004 C200.16487477 94.26890296 196.8259256 95.68883314 193.48681641 97.10839844 C191.37791188 98.00581753 189.26902435 98.90327657 187.16015625 99.80078125 C186.2690062 100.17928726 185.37785614 100.55779327 184.45970154 100.94776917 C173.61158943 105.56815541 162.81422057 110.29816497 152 115 C215.855 115.495 215.855 115.495 281 116 C281 129.49778081 281 129.49778081 280.46850586 135.20532227 C280.35070267 136.50111206 280.23289948 137.79690186 280.11152649 139.13195801 C279.9793277 140.52677682 279.84709912 141.9215928 279.71484375 143.31640625 C279.57641218 144.82209327 279.43854553 146.32783231 279.30119324 147.83361816 C279.00615613 151.05895563 278.70809113 154.28399206 278.40753174 157.50881958 C277.59862984 166.19219643 276.80938323 174.87737335 276.01953125 183.5625 C275.93729561 184.4648897 275.85505997 185.3672794 275.77033234 186.29701424 C274.46151201 200.67258352 273.21609416 215.05281852 272.01171875 229.4375 C271.93172827 230.39220625 271.85173779 231.3469125 271.76932335 232.33054924 C270.98822873 241.66046837 270.21287675 250.99085334 269.44362736 260.32175636 C269.15882653 263.77014227 268.87187239 267.21834693 268.58449745 270.66651917 C268.38804827 273.03454355 268.19484529 275.40281795 268.00175476 277.77111816 C267.88302037 279.19776868 267.76411877 280.62440529 267.64501953 282.05102539 C267.49348923 283.89320396 267.49348923 283.89320396 267.33889771 285.77259827 C267.04477591 288.57358863 266.61122949 291.25332223 266 294 C239.20280432 302.04190875 212.3710534 309.95886205 185.5 317.75 C184.8130883 317.94918785 184.12617661 318.1483757 183.4184494 318.35359955 C166.74282715 323.18872883 166.74282715 323.18872883 159.69847107 325.2197876 C158.05393133 325.69527548 156.41032801 326.17403845 154.76844788 326.65863037 C147.32270273 328.84339242 142.21532919 327.67640142 135.0625 325.25 C129.25870164 323.34671434 123.47624379 321.53031089 117.5625 320 C111.00302253 318.29705873 104.52253875 316.38830076 98.03759766 314.421875 C91.35193435 312.3969086 84.64801062 310.44085822 77.9375 308.5 C69.84379193 306.15393233 61.79115487 303.70824262 53.76538086 301.13989258 C46.98952691 298.97685683 40.17413081 296.96350948 33.34375 294.98046875 C31.218016 294.35715189 29.10155705 293.70051902 27 293 C26.0848713 282.13431793 25.17197914 271.26845049 24.26194 260.40234089 C23.8393005 255.35675714 23.41589153 250.31124043 22.99072266 245.26586914 C22.58042414 240.39662204 22.1721487 235.52720915 21.76527405 230.65767479 C21.60970566 228.80009097 21.45340901 226.942568 21.29637146 225.0851078 C21.07651075 222.48308412 20.85924267 219.88085595 20.64257812 217.27856445 C20.57712296 216.5110788 20.51166779 215.74359314 20.44422913 214.95285034 C20.14064079 211.27436261 20 207.69855908 20 204 C39.47 204 58.94 204 79 204 C80.20673247 207.62019742 80.44945816 211.14516689 80.75390625 214.921875 C80.81907944 215.70008606 80.88425262 216.47829712 80.95140076 217.28009033 C81.08846194 218.92746335 81.22367444 220.57499108 81.35717773 222.22265625 C81.56063154 224.72700088 81.77106831 227.23068611 81.98242188 229.734375 C82.11500396 231.33850696 82.24717838 232.94267267 82.37890625 234.546875 C82.44139053 235.28879089 82.50387482 236.03070679 82.56825256 236.79510498 C82.92165264 241.21324775 83.05789863 245.56765961 83 250 C83.66186813 250.10585419 84.32373627 250.21170837 85.00566101 250.32077026 C91.98764865 251.50454482 98.62607376 253.2626945 105.39453125 255.3203125 C138.91604554 265.41247604 138.91604554 265.41247604 172.23583984 258.46826172 C178.92615853 255.74497124 186.00054922 254.06355212 192.95797729 252.16531372 C196.78127614 251.11290607 200.58969431 250.00996402 204.3984375 248.90625 C205.68666329 248.53442583 206.97490953 248.16267251 208.26318359 247.79101562 C209.16633301 247.52998047 210.06948242 247.26894531 211 247 C211.79008238 242.68390659 212.22836794 238.45606615 212.48071289 234.07666016 C212.5198732 233.4125412 212.55903351 232.74842224 212.59938049 232.06417847 C212.72686676 229.88930555 212.84979524 227.71420117 212.97265625 225.5390625 C213.06062578 224.02304471 213.1488818 222.50704353 213.2374115 220.99105835 C213.46876943 217.01613179 213.69625226 213.04099272 213.9229126 209.0657959 C214.15524028 205.00336309 214.39125453 200.94114463 214.62695312 196.87890625 C215.08823167 188.91947532 215.5454142 180.95981596 216 173 C215.42646286 173.00222061 214.85292572 173.00444122 214.26200867 173.00672913 C206.07052447 173.03647337 197.87902947 173.05266469 189.6875 173.0625 C188.98010807 173.06335602 188.27271614 173.06421204 187.54388809 173.06509399 C150.75736475 173.10394363 113.97253995 172.79203213 77.1875 172.5 C76.43421527 172.49402628 75.68093055 172.48805257 74.90481901 172.48189783 C55.26983913 172.32609096 35.63490091 172.16547375 16 172 C14.80316665 168.40949994 14.55060596 164.92125359 14.24609375 161.17578125 C14.18092056 160.39671921 14.11574738 159.61765717 14.04859924 158.81498718 C13.91138833 157.15831277 13.77618378 155.50147115 13.64282227 153.84448242 C13.44186579 151.36633782 13.23014807 148.88928099 13.01757812 146.41210938 C12.17362872 136.2453653 11.81722345 126.20281685 12 116 C27.69514088 109.19937111 43.44418638 102.53902127 59.25 96 C60.52053726 95.47431931 60.52053726 95.47431931 61.81674194 94.9380188 C65.36830198 93.46871657 68.91992127 91.9995577 72.47163391 90.53062439 C82.69915647 86.29943249 92.91926952 82.05047179 103.13708496 77.79589844 C105.17278565 76.94844153 107.20866698 76.10141837 109.24475098 75.25488281 C112.12716602 74.05643348 115.00896098 72.85650387 117.890625 71.65625 C119.10770142 71.15067566 119.10770142 71.15067566 120.34936523 70.6348877 C130.26650604 66.49977264 140.12252972 62.23320155 150 58 C102.48 57.67 54.96 57.34 6 57 C0 13.5 0 13.5 0 0 Z " fill="#FEFEFD" transform="translate(109,92)"/>
<path d="M0 0 C63.36 0 126.72 0 192 0 C190.86143337 16.50921609 189.72123025 32.90850749 188.05511475 49.35388184 C185.53105324 74.34607954 183.39570011 99.36736165 181.32404518 124.40020943 C181.08367281 127.30264943 180.84220489 130.20499801 180.60076523 133.1073494 C180.44139227 135.03062466 180.28410524 136.95407246 180.12698364 138.87753296 C179.34868964 148.26057183 178.47791543 157.63397299 177.59350586 167.00756836 C176.09972162 182.84042593 174.67340333 198.67888525 173.26832938 214.51983857 C172.93141866 218.31606891 172.59355898 222.11221482 172.2558136 225.90837097 C171.61435717 233.11958263 170.97363002 240.33085887 170.3332203 247.54216355 C169.55663889 256.28661771 168.77934784 265.03100874 168.00195312 273.77539062 C167.9326063 274.55547163 167.86325947 275.33555263 167.79181123 276.13927245 C167.02555371 284.75882612 166.25902539 293.37835563 165.49191284 301.99783325 C165.42334308 302.7683051 165.35477332 303.53877694 165.28412569 304.33259642 C164.93889109 308.21162957 164.59360817 312.09065842 164.24827385 315.96968269 C163.47156875 324.69507238 162.69628812 333.42058695 161.92243236 342.1462298 C161.36379243 348.44411894 160.80378647 354.74188573 160.24278599 361.03956503 C159.91314891 364.740579 159.58414754 368.44164679 159.25678062 372.14286232 C158.89822304 376.19657859 158.53676255 380.25003093 158.17504883 384.3034668 C158.07021746 385.49396574 157.96538609 386.68446468 157.85737801 387.91103935 C157.37405138 393.30177118 156.84273015 398.65298194 156 404 C152.10611894 405.14806004 148.21167258 406.29414861 144.31640625 407.4375 C140.57266808 408.53647515 136.83093991 409.64206699 133.08984375 410.75 C123.09388652 413.69994075 113.11535865 416.52398489 102.984375 418.97265625 C97.40279078 420.36805231 91.92078882 422.1061236 86.42089844 423.78930664 C80.66580523 425.5371375 74.90262594 427.06241015 69.05395508 428.4675293 C63.87150595 429.73346617 58.78554286 431.24363679 53.6875 432.8125 C35.98789331 438.23792014 17.95283097 442.51179226 0 447 C0 427.53 0 408.06 0 388 C18.13280455 382.66113515 36.26642396 377.3250776 54.40220642 371.99633789 C61.56309672 369.89224247 68.72376188 367.7874008 75.88330078 365.67871094 C81.57896738 364.00122041 87.27568279 362.32734983 92.97338867 360.65679932 C95.02849511 360.05352902 97.08318536 359.44883906 99.13745117 358.8427124 C101.95643871 358.01119544 104.77683063 357.18463109 107.59765625 356.359375 C108.41629654 356.11661835 109.23493683 355.87386169 110.0783844 355.62374878 C113.14600785 354.73094369 115.78723915 354 119 354 C119.03767487 353.42411133 119.07534973 352.84822266 119.11416626 352.25488281 C120.77125578 327.31173293 122.94968667 302.41103473 125.07623291 277.5045166 C125.47063789 272.87817441 125.86270938 268.25163579 126.25473595 263.62509155 C126.64504954 259.0218452 127.03670929 254.41871405 127.42873001 249.81561279 C127.60998074 247.68612553 127.79091367 245.55661119 127.97144699 243.42706299 C129.87949785 220.94175806 131.95689521 198.47415264 134 176 C90.77 176 47.54 176 3 176 C6.11838893 173.6612083 8.26881251 172.29777787 11.73779297 170.82128906 C12.68635666 170.41440353 13.63492035 170.00751801 14.61222839 169.58830261 C15.6451149 169.151819 16.6780014 168.71533539 17.7421875 168.265625 C19.3790728 167.56624565 19.3790728 167.56624565 21.04902649 166.85273743 C24.03312006 165.57898766 27.01922316 164.31009778 30.00628281 163.04332352 C33.14430387 161.71114446 36.27965172 160.37270347 39.4152832 159.03491211 C44.64306982 156.80547466 49.87242998 154.57976825 55.10302734 152.35693359 C62.73363135 149.1141717 70.3612833 145.86451408 77.98828125 142.61328125 C85.98623158 139.20431112 93.98491644 135.79708622 101.98535156 132.39395142 C106.0057608 130.68335065 110.02534949 128.97082702 114.04486084 127.25811768 C117.08716799 125.9628892 120.13074909 124.67068207 123.17431641 123.37841797 C125.11236028 122.55319043 127.05035096 121.72783798 128.98828125 120.90234375 C129.88620895 120.52203506 130.78413666 120.14172638 131.70927429 119.74989319 C132.52491348 119.40180099 133.34055267 119.0537088 134.1809082 118.69506836 C134.89753128 118.39048203 135.61415436 118.08589569 136.35249329 117.77207947 C137.99900433 117.11440389 137.99900433 117.11440389 139 116 C140.98 97.52 142.96 79.04 145 60 C48.64 60 -47.72 60 -147 60 C-147.33 61.32 -147.66 62.64 -148 64 C-148 62.35 -148 60.7 -148 59 C-99.16 59 -50.32 59 0 59 C0 39.53 0 20.06 0 0 Z " fill="#35A8DA" transform="translate(256,32)"/>
<path d="M0 0 C44.22 0 88.44 0 134 0 C134 12.37282349 134 12.37282349 133.46850586 18.09179688 C133.35070267 19.3876622 133.23289948 20.68352753 133.11152649 22.0186615 C132.97932035 23.41869302 132.84709203 24.81872245 132.71484375 26.21875 C132.57645341 27.72587009 132.4385852 29.2330382 132.30119324 30.74024963 C132.00589191 33.97153735 131.70784028 37.20255394 131.40753174 40.43338013 C130.59954701 49.13027099 129.80950599 57.82880162 129.01953125 66.52734375 C128.89617779 67.88316968 128.89617779 67.88316968 128.77033234 69.26638603 C127.46275125 83.65356394 126.21720042 98.04532839 125.01171875 112.44140625 C124.89173303 113.87329096 124.89173303 113.87329096 124.76932335 115.33410263 C123.98822848 124.6627429 123.21277445 133.99184034 122.44362736 143.32147312 C122.15882463 146.76993229 121.87186996 150.21821035 121.58449745 153.66645622 C121.38805118 156.0345069 121.19484756 158.40280734 121.00175476 160.77113342 C120.88302043 162.19777886 120.76411883 163.62441038 120.64501953 165.05102539 C120.54399933 166.27914444 120.44297913 167.50726349 120.33889771 168.77259827 C120.04477591 171.57358863 119.61122949 174.25332223 119 177 C92.20280432 185.04190875 65.3710534 192.95886205 38.5 200.75 C37.46963245 201.04878178 37.46963245 201.04878178 36.4184494 201.35359955 C19.74282715 206.18872883 19.74282715 206.18872883 12.69847107 208.2197876 C11.05393133 208.69527548 9.41032801 209.17403845 7.76844788 209.65863037 C0.32270273 211.84339242 -4.78467081 210.67640142 -11.9375 208.25 C-17.74129836 206.34671434 -23.52375621 204.53031089 -29.4375 203 C-35.99697747 201.29705873 -42.47746125 199.38830076 -48.96240234 197.421875 C-55.64806565 195.3969086 -62.35198938 193.44085822 -69.0625 191.5 C-77.15620807 189.15393233 -85.20884513 186.70824262 -93.23461914 184.13989258 C-100.01047309 181.97685683 -106.82586919 179.96350948 -113.65625 177.98046875 C-115.781984 177.35715189 -117.89844295 176.70051902 -120 176 C-120.9151287 165.13431793 -121.82802086 154.26845049 -122.73806 143.40234089 C-123.1606995 138.35675714 -123.58410847 133.31124043 -124.00927734 128.26586914 C-124.41957586 123.39662204 -124.8278513 118.52720915 -125.23472595 113.65767479 C-125.39029434 111.80009097 -125.54659099 109.942568 -125.70362854 108.0851078 C-125.92348925 105.48308412 -126.14075733 102.88085595 -126.35742188 100.27856445 C-126.42287704 99.5110788 -126.48833221 98.74359314 -126.55577087 97.95285034 C-126.85935921 94.27436261 -127 90.69855908 -127 87 C-107.53 87 -88.06 87 -68 87 C-66.79326753 90.62019742 -66.55054184 94.14516689 -66.24609375 97.921875 C-66.14833397 99.08919159 -66.14833397 99.08919159 -66.04859924 100.28009033 C-65.91153806 101.92746335 -65.77632556 103.57499108 -65.64282227 105.22265625 C-65.43936846 107.72700088 -65.22893169 110.23068611 -65.01757812 112.734375 C-64.88499604 114.33850696 -64.75282162 115.94267267 -64.62109375 117.546875 C-64.55860947 118.28879089 -64.49612518 119.03070679 -64.43174744 119.79510498 C-64.07834736 124.21324775 -63.94210137 128.56765961 -64 133 C-63.33813187 133.10585419 -62.67626373 133.21170837 -61.99433899 133.32077026 C-55.01235135 134.50454482 -48.37392624 136.2626945 -41.60546875 138.3203125 C-8.08395446 148.41247604 -8.08395446 148.41247604 25.23583984 141.46826172 C31.92615853 138.74497124 39.00054922 137.06355212 45.95797729 135.16531372 C49.78127614 134.11290607 53.58969431 133.00996402 57.3984375 131.90625 C58.68666329 131.53442583 59.97490953 131.16267251 61.26318359 130.79101562 C62.16633301 130.52998047 63.06948242 130.26894531 64 130 C64.79008238 125.68390659 65.22836794 121.45606615 65.48071289 117.07666016 C65.52048217 116.40190832 65.56025145 115.72715649 65.60122585 115.03195763 C65.72804857 112.86782201 65.85045244 110.70346331 65.97265625 108.5390625 C66.05077285 107.19488853 66.12918147 105.85073149 66.20788574 104.5065918 C66.49628995 99.54626534 66.77905929 94.58561255 67.0625 89.625 C68.0215625 72.980625 68.0215625 72.980625 69 56 C46.23 56 23.46 56 0 56 C0 37.52 0 19.04 0 0 Z " fill="#FEFEFD" transform="translate(256,209)"/>
<path d="M0 0 C0 18.48 0 36.96 0 56 C0.99 55.67 1.98 55.34 3 55 C4.77646481 54.92097519 6.55587447 54.90239509 8.33403015 54.91770935 C9.44040833 54.92474884 10.5467865 54.93178833 11.68669128 54.93904114 C12.9008522 54.95198715 14.11501312 54.96493317 15.3659668 54.97827148 C17.28320053 54.9926828 17.28320053 54.9926828 19.23916626 55.00738525 C22.74512478 55.03385449 26.25099942 55.06663638 29.75689292 55.10053515 C33.42040317 55.13488982 37.08395836 55.16346187 40.74751282 55.19264221 C47.68544009 55.24878436 54.6233111 55.31014167 61.56117707 55.37336355 C69.45949137 55.44508435 77.35785073 55.51100515 85.25621927 55.57643402 C101.50420515 55.71116002 117.75211876 55.85318516 134 56 C134 56.33 134 56.66 134 57 C89.78 57 45.56 57 0 57 C0 75.15 0 93.3 0 112 C-43.23 112 -86.46 112 -131 112 C-132.19683335 108.40949994 -132.44939404 104.92125359 -132.75390625 101.17578125 C-132.85166603 100.00718819 -132.85166603 100.00718819 -132.95140076 98.81498718 C-133.08861167 97.15831277 -133.22381622 95.50147115 -133.35717773 93.84448242 C-133.55813421 91.36633782 -133.76985193 88.88928099 -133.98242188 86.41210938 C-134.82637128 76.2453653 -135.18277655 66.20281685 -135 56 C-116.72200369 48.0802323 -98.35653701 40.38602283 -79.94874573 32.77366638 C-79.06331589 32.4074971 -78.17788605 32.04132782 -77.265625 31.6640625 C-75.91965492 31.10749718 -75.91965492 31.10749718 -74.54649353 30.53968811 C-62.17158471 25.41989731 -49.81316773 20.26043104 -37.45349121 15.10400391 C-30.97038625 12.39931734 -24.48618415 9.69729449 -18 7 C-17.14003418 6.64216431 -16.28006836 6.28432861 -15.39404297 5.91564941 C-12.9822887 4.91307124 -10.56948507 3.91307018 -8.15625 2.9140625 C-7.08207825 2.46720596 -7.08207825 2.46720596 -5.98620605 2.01132202 C-1.1152452 0 -1.1152452 0 0 0 Z " fill="#E8E8E7" transform="translate(256,152)"/>
<path d="M0 0 C19.47 0 38.94 0 59 0 C60.20673247 3.62019742 60.44945816 7.14516689 60.75390625 10.921875 C60.85166603 12.08919159 60.85166603 12.08919159 60.95140076 13.28009033 C61.08846194 14.92746335 61.22367444 16.57499108 61.35717773 18.22265625 C61.56063154 20.72700088 61.77106831 23.23068611 61.98242188 25.734375 C62.11500396 27.33850696 62.24717838 28.94267267 62.37890625 30.546875 C62.44139053 31.28879089 62.50387482 32.03070679 62.56825256 32.79510498 C62.92165264 37.21324775 63.05789863 41.56765961 63 46 C63.97505997 46.16428749 63.97505997 46.16428749 64.96981812 46.33189392 C72.20193744 47.59320573 79.29607475 49.21438046 86.4140625 51.00390625 C87.55032074 51.28725327 88.68657898 51.57060028 89.85726929 51.86253357 C92.23584628 52.45667104 94.61398532 53.05256433 96.99169922 53.65014648 C100.64810734 54.56830246 104.30636161 55.47881945 107.96484375 56.38867188 C110.28136345 56.96829676 112.5977738 57.54835892 114.9140625 58.12890625 C116.56071396 58.53829185 116.56071396 58.53829185 118.2406311 58.95594788 C119.24613007 59.20968674 120.25162903 59.4634256 121.28759766 59.72485352 C122.62016098 60.05888939 122.62016098 60.05888939 123.97964478 60.39967346 C126 61 126 61 127 62 C127.09396057 63.93306498 127.11743517 65.86958838 127.11352539 67.80493164 C127.11341209 69.66674828 127.11341209 69.66674828 127.11329651 71.56617737 C127.10818911 72.9308374 127.1029731 74.29549702 127.09765625 75.66015625 C127.095792 77.04878183 127.09436813 78.43740807 127.09336853 79.82603455 C127.08954387 83.48721115 127.07971403 87.1483483 127.06866455 90.80950928 C127.05844932 94.54292263 127.05387067 98.27634234 127.04882812 102.00976562 C127.03809171 109.33986177 127.02101591 116.66992536 127 124 C125.43047371 123.69591901 123.86148706 123.38905207 122.29272461 123.08105469 C120.98204262 122.82518585 120.98204262 122.82518585 119.6448822 122.56414795 C115.54516419 121.68968651 111.56508646 120.48686118 107.5625 119.25 C106.7063208 118.98977051 105.8501416 118.72954102 104.96801758 118.46142578 C98.22498963 116.40309935 91.51053683 114.25674827 84.79516602 112.11035156 C78.86797099 110.23269711 72.8946988 108.61931866 66.875 107.0625 C61.53732733 105.63912062 56.29763379 103.89996338 51.0402832 102.20874023 C46.28455505 100.689835 41.52485353 99.30517185 36.6875 98.0625 C30.21916196 96.39824266 23.87726509 94.41475321 17.51953125 92.37109375 C16.50491821 92.04653198 15.49030518 91.72197021 14.44494629 91.38757324 C11.96278184 90.59330985 9.48115311 89.79741588 7 89 C6.0848713 78.13431793 5.17197914 67.26845049 4.26194 56.40234089 C3.8393005 51.35675714 3.41589153 46.31124043 2.99072266 41.26586914 C2.58042414 36.39662204 2.1721487 31.52720915 1.76527405 26.65767479 C1.60970566 24.80009097 1.45340901 22.942568 1.29637146 21.0851078 C1.07651075 18.48308412 0.85924267 15.88085595 0.64257812 13.27856445 C0.57712296 12.5110788 0.51166779 11.74359314 0.44422913 10.95285034 C0.14064079 7.27436261 0 3.69855908 0 0 Z " fill="#E7E8E7" transform="translate(129,296)"/>
<path d="M0 0 C48.51 0 97.02 0 147 0 C147 18.81 147 37.62 147 57 C100.47 57 53.94 57 6 57 C0 13.5 0 13.5 0 0 Z " fill="#E8E8E7" transform="translate(109,92)"/>
<path d="M0 0 C22.77 0 45.54 0 69 0 C69 9.93203562 68.99722199 19.68648655 68.4140625 29.5703125 C68.35221771 30.66165497 68.29037292 31.75299744 68.22665405 32.87741089 C68.09633017 35.14758661 67.96348488 37.41761898 67.828125 39.6875 C67.62333528 43.15317215 67.43243995 46.61944034 67.2421875 50.0859375 C67.11281523 52.30994463 66.98263634 54.53390501 66.8515625 56.7578125 C66.79626373 57.78391632 66.74096497 58.81002014 66.68399048 59.86721802 C66.51523693 62.58721659 66.2674334 65.28828156 66 68 C65.88640137 69.94410767 65.88640137 69.94410767 65.77050781 71.92749023 C63.13464157 76.5017286 59.6669524 76.97245552 54.72805786 78.38499451 C53.42568112 78.72489753 52.12309378 79.06399454 50.8203125 79.40234375 C49.48685703 79.77102676 48.15408887 80.14220398 46.82199097 80.51576233 C43.3156051 81.49112268 39.80028095 82.42942513 36.28210449 83.36120605 C33.41439536 84.12734576 30.55418499 84.91946469 27.69398689 85.71311092 C24.2801347 86.65988836 20.86323153 87.59536683 17.4453125 88.52734375 C16.79462925 88.70497694 16.143946 88.88261013 15.47354507 89.06562614 C13.62737163 89.56659146 11.77881777 90.05875928 9.93017578 90.55053711 C8.87919708 90.83142685 7.82821838 91.11231659 6.74539185 91.40171814 C4 92 4 92 0 92 C0 61.64 0 31.28 0 0 Z " fill="#35A8DB" transform="translate(256,265)"/>
</svg>
