<?xml version="1.0" encoding="UTF-8"?>
<svg version="1.1" xmlns="http://www.w3.org/2000/svg" width="800" height="800">
<path d="M0 0 C221.1 0 442.2 0 670 0 C670 221.1 670 442.2 670 670 C448.9 670 227.8 670 0 670 C0 448.9 0 227.8 0 0 Z " fill="#F3E01D" transform="translate(65,65)"/>
<path d="M0 0 C1.62737806 1.38994093 3.23086555 2.80822068 4.8125 4.25 C5.71742188 5.07371094 6.62234375 5.89742188 7.5546875 6.74609375 C15.52678275 14.35381345 22.82111987 22.85114477 26.8125 33.25 C25.81005249 33.89062378 25.81005249 33.89062378 24.78735352 34.54418945 C8.43697651 44.99220066 8.43697651 44.99220066 -7.875 55.5 C-8.53749756 55.92837158 -9.19999512 56.35674316 -9.88256836 56.7980957 C-10.50268799 57.19988037 -11.12280762 57.60166504 -11.76171875 58.015625 C-12.62676025 58.57540039 -12.62676025 58.57540039 -13.50927734 59.14648438 C-14.64830053 59.89544928 -15.77867282 60.65770539 -16.90087891 61.43164062 C-20.99144866 64.25 -20.99144866 64.25 -23.1875 64.25 C-23.46722656 63.693125 -23.74695313 63.13625 -24.03515625 62.5625 C-30.08522144 51.04597719 -37.8230631 43.36338814 -50.4375 39.375 C-60.64759257 36.96328082 -70.94388396 36.92541259 -80.1875 42.25 C-85.54444721 45.73872477 -89.57763882 49.96207161 -91.1875 56.25 C-92.2361628 65.66817912 -92.16005487 74.40925262 -86.1875 82.25 C-75.79048521 94.57069154 -57.63903906 99.8717777 -43.33422852 106.25390625 C23.96200812 136.29331986 23.96200812 136.29331986 39.625 171.1875 C44.05637034 182.7821141 45.28233486 194.09615382 45.125 206.4375 C45.12822266 207.71302734 45.13144531 208.98855469 45.13476562 210.30273438 C45.03689444 227.62593358 40.72461263 242.88952463 30.8125 257.25 C29.98878906 258.46042969 29.98878906 258.46042969 29.1484375 259.6953125 C14.0296364 280.2182808 -10.76804427 290.24445194 -35.1875 294.0625 C-71.88060853 299.15564636 -110.67854784 293.33425009 -140.94238281 270.95214844 C-153.51417014 261.2041999 -162.93877738 249.76083878 -171.1875 236.25 C-171.8475 235.26 -172.5075 234.27 -173.1875 233.25 C-173.08032227 231.23388672 -173.08032227 231.23388672 -172.1875 229.25 C-170.34350586 227.82470703 -170.34350586 227.82470703 -167.90234375 226.5078125 C-166.99000977 226.00540039 -166.07767578 225.50298828 -165.13769531 224.98535156 C-164.14350586 224.45393555 -163.14931641 223.92251953 -162.125 223.375 C-160.03412803 222.22843557 -157.94431953 221.07993009 -155.85546875 219.9296875 C-154.76540527 219.3325293 -153.6753418 218.73537109 -152.55224609 218.12011719 C-145.90263985 214.42428321 -139.36825216 210.52852054 -132.82006836 206.65673828 C-131.38546265 205.81344971 -131.38546265 205.81344971 -129.921875 204.953125 C-129.07850586 204.45458008 -128.23513672 203.95603516 -127.36621094 203.44238281 C-125.1875 202.25 -125.1875 202.25 -122.1875 201.25 C-121.64222656 202.00023437 -121.09695313 202.75046875 -120.53515625 203.5234375 C-108.23335554 220.22024051 -94.77432901 234.36691328 -73.375 237.875 C-60.74131804 239.01958999 -49.11545748 239.1020505 -37.1875 234.25 C-36.03507812 233.816875 -36.03507812 233.816875 -34.859375 233.375 C-28.10990691 230.4897312 -24.09647054 225.26740505 -20.25 219.1875 C-17.52365043 211.71147224 -17.89966456 202.02207333 -21.125 194.8125 C-31.56156127 177.45635564 -55.34964253 170.80435574 -73.01693726 163.2651062 C-107.96743154 148.33057488 -107.96743154 148.33057488 -122.1875 136.25 C-123.07695313 135.49847656 -123.96640625 134.74695313 -124.8828125 133.97265625 C-140.3256094 120.48902015 -151.41800429 102.89721059 -154.1875 82.25 C-154.48533758 77.33000691 -154.51236927 72.42791839 -154.5 67.5 C-154.52416992 65.59734375 -154.52416992 65.59734375 -154.54882812 63.65625 C-154.55493829 51.6803343 -152.87314907 40.29548333 -147.5 29.5 C-147.15114746 28.78320068 -146.80229492 28.06640137 -146.44287109 27.32788086 C-143.40966017 21.30300052 -139.80484769 16.18197359 -135.1875 11.25 C-134.41535156 10.39921875 -133.64320313 9.5484375 -132.84765625 8.671875 C-120.73985936 -4.10538933 -104.41038799 -12.39519877 -87.1875 -15.75 C-86.34058594 -15.95367187 -85.49367188 -16.15734375 -84.62109375 -16.3671875 C-57.02202318 -22.23249216 -22.7232241 -17.49867178 0 0 Z " fill="#050708" transform="translate(637.1875,386.75)"/>
<path d="M0 0 C20.79 0 41.58 0 63 0 C63.06628902 28.59504496 63.12162243 57.19003123 63.15319599 85.7851341 C63.15694756 89.1704769 63.16083058 92.55581955 63.16479492 95.94116211 C63.16558185 96.61504776 63.16636878 97.28893342 63.16717956 97.98323985 C63.18018979 108.85682695 63.20381912 119.73036586 63.23145839 130.60392449 C63.25963521 141.78322239 63.27597787 152.96250397 63.28226548 164.14183778 C63.28615935 170.41182462 63.29524162 176.68170264 63.31719017 182.95165443 C63.33772765 188.86708515 63.34379929 194.7823634 63.33932304 200.69782639 C63.34014059 202.85551854 63.3460024 205.01321641 63.35761642 207.17087746 C63.49826956 234.67762038 60.0676439 261.86610044 40.30859375 282.69140625 C23.60692986 299.39307014 2.5913151 308.01900317 -21 309 C-21.94391602 309.04237793 -22.88783203 309.08475586 -23.86035156 309.12841797 C-54.03011878 310.27924321 -81.1490088 303.33669922 -103.81640625 282.3984375 C-112.51172702 273.99887594 -120.34194607 264.2882678 -125 253 C-123.64146125 248.92438374 -121.90226891 248.50621599 -118.1875 246.375 C-116.83894137 245.59009001 -115.49137609 244.8034721 -114.14453125 244.015625 C-113.35771973 243.55736328 -112.5709082 243.09910156 -111.76025391 242.62695312 C-106.56592487 239.56530367 -101.42361458 236.41686471 -96.27383423 233.28106689 C-93.7925008 231.77035712 -91.30997477 230.26161512 -88.82722473 228.75323486 C-87.18458717 227.7552473 -85.54223559 226.75678906 -83.89990234 225.75830078 C-82.94293457 225.17806152 -81.9859668 224.59782227 -81 224 C-80.11135254 223.42878418 -79.22270508 222.85756836 -78.30712891 222.26904297 C-76 221 -76 221 -73 221 C-71.45703125 223.2734375 -71.45703125 223.2734375 -69.8125 226.375 C-63.55439469 237.50052054 -56.47377214 246.77381153 -44 251 C-32.26713331 252.76838751 -21.06128478 252.94541977 -11 246 C-3.85807857 239.51709707 -1.17288511 229.58394442 -0.62531281 220.22385216 C-0.41866921 214.43998041 -0.43895699 208.65659372 -0.45410156 202.86987305 C-0.44535457 200.65122761 -0.43486489 198.43258848 -0.42277527 196.21395874 C-0.39503286 190.22519945 -0.39150799 184.23664721 -0.39249516 178.24783301 C-0.38935594 171.97643945 -0.36371673 165.70513776 -0.34051514 159.43379211 C-0.30462154 148.91883867 -0.28247064 138.40392081 -0.27099609 127.88891602 C-0.25914604 117.06466167 -0.23890791 106.24047585 -0.20751953 95.41625977 C-0.20558343 94.74760117 -0.20364733 94.07894257 -0.20165256 93.39002158 C-0.19188713 90.03512339 -0.18195818 86.6802257 -0.17194796 83.32532823 C-0.08964981 55.55023165 -0.03846842 27.77519426 0 0 Z " fill="#050708" transform="translate(367,373)"/>
</svg>
