<?xml version="1.0" encoding="UTF-8"?>
<svg version="1.1" xmlns="http://www.w3.org/2000/svg" width="512" height="512">
<path d="M0 0 C2.34951397 0.00315762 4.69775946 -0.02040818 7.04711914 -0.0456543 C50.14975938 -0.22344405 84.14672278 18.71716008 114.23657227 48.43945312 C117.39792222 51.59115665 120.53802913 54.76381451 123.67407227 57.94067383 C125.78836943 60.08158186 127.90601001 62.21910445 130.02563477 64.35473633 C130.94425293 65.28495605 131.86287109 66.21517578 132.80932617 67.17358398 C134.8564008 69.34225959 134.8564008 69.34225959 137.04907227 70.31567383 C137.04907227 70.97567383 137.04907227 71.63567383 137.04907227 72.31567383 C137.89985352 72.71012695 137.89985352 72.71012695 138.76782227 73.11254883 C141.22012671 74.40588747 143.32100949 75.91690737 145.54907227 77.56567383 C154.37454997 83.71792713 162.63848111 87.5428016 173.17407227 89.69067383 C173.99697754 89.85849365 174.81988281 90.02631348 175.66772461 90.19921875 C194.89099742 93.74639307 213.49495091 89.11122596 229.76391602 78.55395508 C231.96057578 76.89777399 234.00450267 75.15539252 236.04907227 73.31567383 C236.8315332 72.66211914 237.61399414 72.00856445 238.42016602 71.33520508 C245.44379262 65.31964968 251.23534952 58.46677386 257.04907227 51.31567383 C258.17999305 54.66310392 257.91411364 56.59192154 256.79125977 59.91333008 C256.49807861 60.79166504 256.20489746 61.67 255.90283203 62.57495117 C255.57984131 63.50001465 255.25685059 64.42507813 254.92407227 65.37817383 C254.59785889 66.32901855 254.27164551 67.27986328 253.93554688 68.25952148 C251.65724726 74.8033946 249.20869998 81.14168863 246.04907227 87.31567383 C245.47672852 88.48098633 244.90438477 89.64629883 244.31469727 90.84692383 C234.34124676 110.72490159 219.49011095 127.38145634 200.04907227 138.31567383 C198.9752832 138.93958008 197.90149414 139.56348633 196.79516602 140.20629883 C164.15237697 157.93437788 120.08962032 159.09939049 84.98657227 148.94067383 C63.41027543 142.27308521 45.83354385 131.61817168 29.29907227 116.38208008 C27.31460406 114.55953897 25.29121335 112.80783824 23.23657227 111.06567383 C19.43981999 107.75807369 15.86634694 104.24157348 12.29907227 100.69067383 C11.74372803 100.13992188 11.18838379 99.58916992 10.61621094 99.02172852 C7.53492326 95.92878871 4.76517293 92.73981783 2.04907227 89.31567383 C-14.38356969 73.03241953 -32.92297137 63.61466145 -56.07592773 63.06567383 C-78.75735458 63.26838767 -98.00167037 73.7579357 -113.95092773 89.31567383 C-116.50689629 92.08879292 -118.84478703 95.01562703 -121.14624023 98.00317383 C-122.6531675 99.93412825 -124.17375809 101.63784908 -125.95092773 103.31567383 C-125.384966 97.58531131 -124.29709638 92.45114533 -122.45092773 87.00317383 C-122.06106689 85.84954346 -122.06106689 85.84954346 -121.66333008 84.67260742 C-116.88305675 71.01113304 -110.64120562 57.9252101 -101.95092773 46.31567383 C-100.9396582 44.95442383 -100.9396582 44.95442383 -99.90795898 43.56567383 C-84.82212468 24.22063312 -64.8640649 11.86169607 -41.45092773 5.00317383 C-40.63366211 4.76066895 -39.81639648 4.51816406 -38.97436523 4.26831055 C-26.14596617 0.71184803 -13.22858542 -0.03696283 0 0 Z " fill="#37BDF9" transform="translate(125.950927734375,255.684326171875)"/>
<path d="M0 0 C5.27252231 4.72774034 10.24690552 9.74657542 15.20751953 14.79711914 C17.9926135 17.61731933 20.92669143 20.20072015 23.95361328 22.75805664 C26.27390276 24.84928646 28.43642908 27.0531725 30.61401367 29.29101562 C46.22332433 45.28970014 63.85770254 57.36482482 86.91796875 58.10522461 C110.58190488 58.27119908 129.61341501 48.86274022 146.40380859 32.60375977 C151.1119948 27.94998496 155.37000143 23.16229941 159.09033203 17.68383789 C160.73427294 21.71710907 159.33475161 25.07651971 158.02783203 28.99633789 C157.79813721 29.70201904 157.56844238 30.4077002 157.33178711 31.13476562 C146.86435313 62.71310917 128.73039831 92.25358869 98.09033203 107.68383789 C93.15557755 109.87828737 88.16646309 111.84298401 83.09033203 113.68383789 C82.03974609 114.06668945 80.98916016 114.44954102 79.90673828 114.84399414 C54.29439836 123.42494369 21.3280718 124.23847676 -4.90966797 117.68383789 C-5.61849121 117.51223145 -6.32731445 117.340625 -7.05761719 117.16381836 C-38.234085 109.39227292 -62.06464173 90.89464502 -84.19091797 68.31665039 C-102.60525858 49.53388188 -121.15340184 31.50392092 -148.90966797 29.68383789 C-149.68955078 29.63227539 -150.46943359 29.58071289 -151.27294922 29.52758789 C-163.76221111 29.08352525 -175.93288941 31.73944 -186.90966797 37.68383789 C-187.86099609 38.1646582 -188.81232422 38.64547852 -189.79248047 39.14086914 C-201.45213651 45.39689869 -210.48603253 54.72158509 -219.10498047 64.62524414 C-220.64869976 66.38615338 -222.23134857 68.05242804 -223.90966797 69.68383789 C-223.34693424 63.47239722 -221.9425264 58.04751736 -219.84716797 52.18383789 C-219.5384375 51.31380127 -219.22970703 50.44376465 -218.91162109 49.54736328 C-207.56843362 18.44736658 -187.5468216 -7.04439262 -157.59716797 -21.56616211 C-107.71660364 -44.78026723 -41.46028334 -36.1998703 0 0 Z " fill="#37BDF9" transform="translate(351.90966796875,135.316162109375)"/>
</svg>
